<?xml version="1.0" encoding="UTF-8"?>
<svg xmlns="http://www.w3.org/2000/svg" viewBox="0 0 120 120" width="120" height="120">
    
    
        
        <g>
            
        <path d="M25.0 55.0 L145.0 55.0" stroke="#fbbf24" stroke-width="4.5" stroke-linecap="square"/>
        <path d="M32.5 100.0 L137.5 100.0" stroke="#fbbf24" stroke-width="4.5" stroke-linecap="square"/>
        <path d="M40.0 145.0 L130.0 145.0" stroke="#fbbf24" stroke-width="4.5" stroke-linecap="square"/>
        
            
        <!-- Top crack with chain elements -->
        <path d="M47.5 32.5 L52.0 55.0" stroke="#fbbf24" stroke-width="3.75" stroke-linecap="square"/>
        <path d="M122.5 32.5 L118.0 55.0" stroke="#fbbf24" stroke-width="3.75" stroke-linecap="square"/>
        <!-- Chain link in top crack -->
        <circle cx="49.75" cy="43.75" r="4.5" fill="none" stroke="#fbbf24" stroke-width="2.25"/>
        <circle cx="120.25" cy="43.75" r="4.5" fill="none" stroke="#fbbf24" stroke-width="2.25"/>
        
            
        <!-- Middle crack with cog elements -->
        <path d="M55.0 77.5 L59.5 100.0" stroke="#fbbf24" stroke-width="3.75" stroke-linecap="square"/>
        <path d="M115.0 77.5 L110.5 100.0" stroke="#fbbf24" stroke-width="3.75" stroke-linecap="square"/>
        <!-- Cog/gear in middle crack -->
        <g transform="translate(57.25, 88.75)">
            <circle r="6.0" fill="none" stroke="#fbbf24" stroke-width="2.25"/>
            <circle r="3.0" fill="#fbbf24"/>
            <!-- Gear teeth -->
            <path d="M-6.0 0 L-8.25 -2.25 M6.0 0 L8.25 -2.25" stroke="#fbbf24" stroke-width="1.7999999999999998" stroke-linecap="round"/>
            <path d="M0 -6.0 L-2.25 -8.25 M0 6.0 L2.25 8.25" stroke="#fbbf24" stroke-width="1.7999999999999998" stroke-linecap="round"/>
        </g>
        <g transform="translate(112.75, 88.75)">
            <circle r="6.0" fill="none" stroke="#fbbf24" stroke-width="2.25"/>
            <circle r="3.0" fill="#fbbf24"/>
            <path d="M-6.0 0 L-8.25 -2.25 M6.0 0 L8.25 -2.25" stroke="#fbbf24" stroke-width="1.7999999999999998" stroke-linecap="round"/>
            <path d="M0 -6.0 L-2.25 -8.25 M0 6.0 L2.25 8.25" stroke="#fbbf24" stroke-width="1.7999999999999998" stroke-linecap="round"/>
        </g>
        
            
        <!-- Bottom crack with bike chain -->
        <path d="M85.0 122.5 L89.5 145.0" stroke="#fbbf24" stroke-width="3.75" stroke-linecap="square"/>
        <path d="M85.0 122.5 L80.5 145.0" stroke="#fbbf24" stroke-width="3.75" stroke-linecap="square"/>
        <!-- Chain links in bottom crack -->
        <g transform="translate(87.25, 133.75)">
            <rect x="-4.5" y="-3.0" width="9.0" height="6.0" rx="1.5" fill="none" stroke="#fbbf24" stroke-width="2.25"/>
            <circle cx="-5.25" cy="0" r="2.25" fill="none" stroke="#fbbf24" stroke-width="1.7999999999999998"/>
            <circle cx="5.25" cy="0" r="2.25" fill="none" stroke="#fbbf24" stroke-width="1.7999999999999998"/>
        </g>
        
            
        <path d="M34.0 25.0 L37.0 31.0" stroke="#fbbf24" stroke-width="2.25" stroke-linecap="square" opacity="0.7"/>
        <path d="M58.0 25.0 L55.0 31.0" stroke="#fbbf24" stroke-width="2.25" stroke-linecap="square" opacity="0.7"/>
        
        </g>
        
        
</svg>