<?xml version="1.0" encoding="UTF-8"?>
<svg xmlns="http://www.w3.org/2000/svg" viewBox="0 0 200 200" width="200" height="200">
    
    
        
        <g>
            
        <path d="M62.0 56.0 L158.0 56.0" stroke="#fbbf24" stroke-width="3.5999999999999996" stroke-linecap="square"/>
        <path d="M68.0 92.0 L152.0 92.0" stroke="#fbbf24" stroke-width="3.5999999999999996" stroke-linecap="square"/>
        <path d="M74.0 128.0 L146.0 128.0" stroke="#fbbf24" stroke-width="3.5999999999999996" stroke-linecap="square"/>
        
            
        <!-- Top crack with chain elements -->
        <path d="M80.0 38.0 L83.6 56.0" stroke="#fbbf24" stroke-width="3.0" stroke-linecap="square"/>
        <path d="M140.0 38.0 L136.39999999999998 56.0" stroke="#fbbf24" stroke-width="3.0" stroke-linecap="square"/>
        <!-- Chain link in top crack -->
        <circle cx="81.8" cy="47.0" r="3.5999999999999996" fill="none" stroke="#fbbf24" stroke-width="1.7999999999999998"/>
        <circle cx="138.2" cy="47.0" r="3.5999999999999996" fill="none" stroke="#fbbf24" stroke-width="1.7999999999999998"/>
        
            
        <!-- Middle crack with cog elements -->
        <path d="M86.0 74.0 L89.6 92.0" stroke="#fbbf24" stroke-width="3.0" stroke-linecap="square"/>
        <path d="M134.0 74.0 L130.39999999999998 92.0" stroke="#fbbf24" stroke-width="3.0" stroke-linecap="square"/>
        <!-- Cog/gear in middle crack -->
        <g transform="translate(87.8, 83.0)">
            <circle r="4.8" fill="none" stroke="#fbbf24" stroke-width="1.7999999999999998"/>
            <circle r="2.4" fill="#fbbf24"/>
            <!-- Gear teeth -->
            <path d="M-4.8 0 L-6.6 -1.7999999999999998 M4.8 0 L6.6 -1.7999999999999998" stroke="#fbbf24" stroke-width="1.44" stroke-linecap="round"/>
            <path d="M0 -4.8 L-1.7999999999999998 -6.6 M0 4.8 L1.7999999999999998 6.6" stroke="#fbbf24" stroke-width="1.44" stroke-linecap="round"/>
        </g>
        <g transform="translate(132.2, 83.0)">
            <circle r="4.8" fill="none" stroke="#fbbf24" stroke-width="1.7999999999999998"/>
            <circle r="2.4" fill="#fbbf24"/>
            <path d="M-4.8 0 L-6.6 -1.7999999999999998 M4.8 0 L6.6 -1.7999999999999998" stroke="#fbbf24" stroke-width="1.44" stroke-linecap="round"/>
            <path d="M0 -4.8 L-1.7999999999999998 -6.6 M0 4.8 L1.7999999999999998 6.6" stroke="#fbbf24" stroke-width="1.44" stroke-linecap="round"/>
        </g>
        
            
        <!-- Bottom crack with bike chain -->
        <path d="M110.0 110.0 L113.6 128.0" stroke="#fbbf24" stroke-width="3.0" stroke-linecap="square"/>
        <path d="M110.0 110.0 L106.4 128.0" stroke="#fbbf24" stroke-width="3.0" stroke-linecap="square"/>
        <!-- Chain links in bottom crack -->
        <g transform="translate(111.8, 119.0)">
            <rect x="-3.5999999999999996" y="-2.4" width="7.199999999999999" height="4.8" rx="1.2" fill="none" stroke="#fbbf24" stroke-width="1.7999999999999998"/>
            <circle cx="-4.2" cy="0" r="1.7999999999999998" fill="none" stroke="#fbbf24" stroke-width="1.44"/>
            <circle cx="4.2" cy="0" r="1.7999999999999998" fill="none" stroke="#fbbf24" stroke-width="1.44"/>
        </g>
        
            
        <path d="M69.2 32.0 L71.6 36.8" stroke="#fbbf24" stroke-width="1.7999999999999998" stroke-linecap="square" opacity="0.7"/>
        <path d="M88.4 32.0 L86.0 36.8" stroke="#fbbf24" stroke-width="1.7999999999999998" stroke-linecap="square" opacity="0.7"/>
        
        </g>
        
        
        <g>
            <path d="
            M 80.0 145.0 L 80.0 100.0
            L 98.75 100.0 L 102.5 111.25
            L 98.75 122.5 L 80.0 122.5
            M 89.0 122.5 L 102.5 145.0
        " stroke="#ffffff" stroke-width="6.0" 
                  fill="none" stroke-linecap="square" stroke-linejoin="miter"/>
            <path d="
            M 117.5 100.0 L 117.5 145.0
            M 110.0 100.0 L 125.0 100.0
            M 110.0 145.0 L 125.0 145.0
        " stroke="#ffffff" stroke-width="6.0" 
                  fill="none" stroke-linecap="square"/>
            <path d="
            M 140.0 145.0 L 140.0 100.0
            L 162.5 100.0
            M 140.0 121.0 L 158.75 121.0
        " stroke="#ffffff" stroke-width="6.0" 
                  fill="none" stroke-linecap="square"/>
            <path d="
            M 173.75 100.0 L 203.75 100.0
            M 188.75 100.0 L 188.75 145.0
        " stroke="#ffffff" stroke-width="6.0" 
                  fill="none" stroke-linecap="square"/>
        </g>
        
        
</svg>