<?xml version="1.0" encoding="UTF-8"?>
<svg xmlns="http://www.w3.org/2000/svg" viewBox="0 0 100 100" width="100" height="100">
    <rect width="100" height="100" fill="#0d4d3f"/>
    
        <g transform="translate(10.0, 30.0) scale(1.0)">
            <!-- Base horizontal lines -->
            <path d="M10 30 L90 30" stroke="#fbbf24" stroke-width="3.5" stroke-linecap="square"/>
            <path d="M15 60 L85 60" stroke="#fbbf24" stroke-width="3.5" stroke-linecap="square"/>
            <path d="M20 90 L80 90" stroke="#fbbf24" stroke-width="3.5" stroke-linecap="square"/>
            <!-- Primary cracks -->
            <path d="M25 15 L28 30 M75 15 L72 30" stroke="#fbbf24" stroke-width="3" stroke-linecap="square"/>
            <path d="M30 45 L33 60 M70 45 L67 60" stroke="#fbbf24" stroke-width="3" stroke-linecap="square"/>
            <path d="M50 75 L53 90 M50 75 L47 90" stroke="#fbbf24" stroke-width="3" stroke-linecap="square"/>
            <!-- Secondary cracks -->
            <path d="M40 20 L42 30 M60 20 L58 30" stroke="#fbbf24" stroke-width="2.5" stroke-linecap="square"/>
            <path d="M35 50 L37 60 M65 50 L63 60" stroke="#fbbf24" stroke-width="2.5" stroke-linecap="square"/>
            <path d="M45 80 L47 90 M55 80 L53 90" stroke="#fbbf24" stroke-width="2.5" stroke-linecap="square"/>
            <!-- Tertiary cracks -->
            <path d="M18 25 L20 30 M82 25 L80 30" stroke="#fbbf24" stroke-width="2" stroke-linecap="square" opacity="0.8"/>
            <path d="M22 55 L24 60 M78 55 L76 60" stroke="#fbbf24" stroke-width="2" stroke-linecap="square" opacity="0.8"/>
            <path d="M48 85 L50 90 M52 85 L50 90" stroke="#fbbf24" stroke-width="2" stroke-linecap="square" opacity="0.8"/>
            <!-- Plate detail lines -->
            <path d="M20 30 L25 30 M75 30 L80 30" stroke="#fbbf24" stroke-width="1.5" stroke-linecap="square" opacity="0.6"/>
            <path d="M25 60 L30 60 M70 60 L75 60" stroke="#fbbf24" stroke-width="1.5" stroke-linecap="square" opacity="0.6"/>
            <path d="M30 90 L35 90 M65 90 L70 90" stroke="#fbbf24" stroke-width="1.5" stroke-linecap="square" opacity="0.6"/>
        </g>
        
</svg>