<?xml version="1.0" encoding="UTF-8"?>
<svg xmlns="http://www.w3.org/2000/svg" viewBox="0 0 100 100" width="100" height="100">
    <rect width="100" height="100" fill="#0d4d3f"/>
    
        <g transform="translate(10.0, 30.0) scale(1.0)">
            <!-- Curved horizontal lines -->
            <path d="M10 30 Q50 25 90 30" stroke="#fbbf24" stroke-width="3" stroke-linecap="round" fill="none"/>
            <path d="M15 60 Q50 55 85 60" stroke="#fbbf24" stroke-width="3" stroke-linecap="round" fill="none"/>
            <path d="M20 90 Q50 85 80 90" stroke="#fbbf24" stroke-width="3" stroke-linecap="round" fill="none"/>
            <!-- Flowing cracks -->
            <path d="M25 15 Q26.5 22.5 28 30" stroke="#fbbf24" stroke-width="2.5" stroke-linecap="round" fill="none"/>
            <path d="M75 15 Q73.5 22.5 72 30" stroke="#fbbf24" stroke-width="2.5" stroke-linecap="round" fill="none"/>
            <path d="M30 45 Q31.5 52.5 33 60" stroke="#fbbf24" stroke-width="2.5" stroke-linecap="round" fill="none"/>
            <path d="M70 45 Q68.5 52.5 67 60" stroke="#fbbf24" stroke-width="2.5" stroke-linecap="round" fill="none"/>
            <path d="M50 75 Q51.5 82.5 53 90" stroke="#fbbf24" stroke-width="2.5" stroke-linecap="round" fill="none"/>
            <path d="M50 75 Q48.5 82.5 47 90" stroke="#fbbf24" stroke-width="2.5" stroke-linecap="round" fill="none"/>
        </g>
        
</svg>