<?xml version="1.0" encoding="UTF-8"?>
<svg xmlns="http://www.w3.org/2000/svg" viewBox="0 0 100 100" width="100" height="100">
    <rect width="100" height="100" fill="#0d4d3f"/>
    
        <g transform="translate(10.0, 30.0) scale(1.0)">
            <!-- Decorative top flourish -->
            <path d="M30 10 Q50 5 70 10" stroke="#fbbf24" stroke-width="2" fill="none" opacity="0.6"/>
            <!-- Horizontal lines with decorative ends -->
            <path d="M5 30 L10 30 M90 30 L95 30" stroke="#fbbf24" stroke-width="2" stroke-linecap="round" opacity="0.5"/>
            <path d="M10 30 L90 30" stroke="#fbbf24" stroke-width="3.5" stroke-linecap="square"/>
            <path d="M5 60 L15 60 M85 60 L95 60" stroke="#fbbf24" stroke-width="2" stroke-linecap="round" opacity="0.5"/>
            <path d="M15 60 L85 60" stroke="#fbbf24" stroke-width="3.5" stroke-linecap="square"/>
            <path d="M5 90 L20 90 M80 90 L95 90" stroke="#fbbf24" stroke-width="2" stroke-linecap="round" opacity="0.5"/>
            <path d="M20 90 L80 90" stroke="#fbbf24" stroke-width="3.5" stroke-linecap="square"/>
            <!-- Angular cracks with decorative elements -->
            <path d="M25 15 L28 30 M75 15 L72 30" stroke="#fbbf24" stroke-width="3" stroke-linecap="square"/>
            <path d="M30 45 L33 60 M70 45 L67 60" stroke="#fbbf24" stroke-width="3" stroke-linecap="square"/>
            <path d="M50 75 L53 90 M50 75 L47 90" stroke="#fbbf24" stroke-width="3" stroke-linecap="square"/>
            <!-- Additional decorative cracks -->
            <path d="M40 20 L42 30 M60 20 L58 30" stroke="#fbbf24" stroke-width="2.5" stroke-linecap="square" opacity="0.7"/>
            <path d="M35 50 L37 60 M65 50 L63 60" stroke="#fbbf24" stroke-width="2.5" stroke-linecap="square" opacity="0.7"/>
            <!-- Bottom decorative flourish -->
            <path d="M35 95 Q50 100 65 95" stroke="#fbbf24" stroke-width="2" fill="none" opacity="0.6"/>
        </g>
        
</svg>