<?xml version="1.0" encoding="UTF-8"?>
<svg xmlns="http://www.w3.org/2000/svg" viewBox="0 0 200 60" width="200" height="60">
    <rect width="200" height="60" fill="#ffffff"/>
    
        
        <!-- Volcanic Rift Icon -->
        <g transform="translate(10, 10) scale(0.5)">
            <!-- Horizontal lines -->
            <path d="M10 30 L90 30" stroke="#0d4d3f" stroke-width="1.5" stroke-linecap="square"/>
            <path d="M15 60 L85 60" stroke="#0d4d3f" stroke-width="1.5" stroke-linecap="square"/>
            <path d="M20 90 L80 90" stroke="#0d4d3f" stroke-width="1.5" stroke-linecap="square"/>
            <!-- Angular cracks -->
            <path d="M25 15 L28 30 M75 15 L72 30" stroke="#0d4d3f" stroke-width="1.25" stroke-linecap="square"/>
            <path d="M30 45 L33 60 M70 45 L67 60" stroke="#0d4d3f" stroke-width="1.25" stroke-linecap="square"/>
            <path d="M50 75 L53 90 M50 75 L47 90" stroke="#0d4d3f" stroke-width="1.25" stroke-linecap="square"/>
        </g>
        
        <g>
            <path d="M 50.0 65.0 L 50.0 35.0 L 62.5 35.0 L 65.0 42.5 L 62.5 50.0 L 50.0 50.0 Z M 56.0 50.0 L 65.0 65.0" fill="none" stroke="#0d4d3f" stroke-width="4.0" stroke-linecap="square" stroke-linejoin="miter"/>
            <path d="M 75.0 35.0 L 75.0 65.0 M 70.0 35.0 L 80.0 35.0 M 70.0 65.0 L 80.0 65.0" fill="none" stroke="#0d4d3f" stroke-width="4.0" stroke-linecap="square"/>
            <path d="M 90.0 65.0 L 90.0 35.0 L 105.0 35.0 M 90.0 49.0 L 102.5 49.0" fill="none" stroke="#0d4d3f" stroke-width="4.0" stroke-linecap="square"/>
            <path d="M 112.5 35.0 L 132.5 35.0 M 122.5 35.0 L 122.5 65.0" fill="none" stroke="#0d4d3f" stroke-width="4.0" stroke-linecap="square"/>
        </g>
        
</svg>