<?xml version="1.0" encoding="UTF-8"?>
<svg xmlns="http://www.w3.org/2000/svg" viewBox="0 0 512 512" width="512" height="512">
    
    
        <rect width="512" height="512" fill="#0d4d3f"/>
        <rect x="50" y="50" width="412" height="412" fill="none" stroke="#fbbf24" stroke-width="4"/>
        
        <!-- Volcanic Rift Icon -->
        <g transform="translate(181, 181) scale(1.5)">
            <!-- Horizontal lines -->
            <path d="M10 30 L90 30" stroke="#fbbf24" stroke-width="4.5" stroke-linecap="square"/>
            <path d="M15 60 L85 60" stroke="#fbbf24" stroke-width="4.5" stroke-linecap="square"/>
            <path d="M20 90 L80 90" stroke="#fbbf24" stroke-width="4.5" stroke-linecap="square"/>
            <!-- Angular cracks -->
            <path d="M25 15 L28 30 M75 15 L72 30" stroke="#fbbf24" stroke-width="3.75" stroke-linecap="square"/>
            <path d="M30 45 L33 60 M70 45 L67 60" stroke="#fbbf24" stroke-width="3.75" stroke-linecap="square"/>
            <path d="M50 75 L53 90 M50 75 L47 90" stroke="#fbbf24" stroke-width="3.75" stroke-linecap="square"/>
        </g>
        
        <g>
            <path d="M 100.0 400.0 L 100.0 350.0 L 120.83333333333334 350.0 L 125.0 362.5 L 120.83333333333334 375.0 L 100.0 375.0 Z M 110.0 375.0 L 125.0 400.0" fill="none" stroke="#fbbf24" stroke-width="6.666666666666667" stroke-linecap="square" stroke-linejoin="miter"/>
            <path d="M 141.66666666666669 350.0 L 141.66666666666669 400.0 M 133.33333333333334 350.0 L 150.0 350.0 M 133.33333333333334 400.0 L 150.0 400.0" fill="none" stroke="#fbbf24" stroke-width="6.666666666666667" stroke-linecap="square"/>
            <path d="M 166.66666666666669 400.0 L 166.66666666666669 350.0 L 191.66666666666669 350.0 M 166.66666666666669 373.3333333333333 L 187.5 373.3333333333333" fill="none" stroke="#fbbf24" stroke-width="6.666666666666667" stroke-linecap="square"/>
            <path d="M 204.16666666666669 350.0 L 237.5 350.0 M 220.83333333333334 350.0 L 220.83333333333334 400.0" fill="none" stroke="#fbbf24" stroke-width="6.666666666666667" stroke-linecap="square"/>
        </g>
        
</svg>