<?xml version="1.0" encoding="UTF-8"?>
<svg xmlns="http://www.w3.org/2000/svg" viewBox="0 0 1200 630" width="1200" height="630">
    
    
        <rect width="1200" height="630" fill="#0d4d3f"/>
        <rect x="190" y="159" width="820" height="312" fill="#0f3d32" opacity="0.2"/>
        
        <!-- Volcanic Rift Icon -->
        <g transform="translate(300, 200) scale(1.2)">
            <!-- Horizontal lines -->
            <path d="M10 30 L90 30" stroke="#fbbf24" stroke-width="3.5999999999999996" stroke-linecap="square"/>
            <path d="M15 60 L85 60" stroke="#fbbf24" stroke-width="3.5999999999999996" stroke-linecap="square"/>
            <path d="M20 90 L80 90" stroke="#fbbf24" stroke-width="3.5999999999999996" stroke-linecap="square"/>
            <!-- Angular cracks -->
            <path d="M25 15 L28 30 M75 15 L72 30" stroke="#fbbf24" stroke-width="3.0" stroke-linecap="square"/>
            <path d="M30 45 L33 60 M70 45 L67 60" stroke="#fbbf24" stroke-width="3.0" stroke-linecap="square"/>
            <path d="M50 75 L53 90 M50 75 L47 90" stroke="#fbbf24" stroke-width="3.0" stroke-linecap="square"/>
        </g>
        
        <g>
            <path d="M 550.0 350.0 L 550.0 280.0 L 579.1666666666666 280.0 L 585.0 297.5 L 579.1666666666666 315.0 L 550.0 315.0 Z M 564.0 315.0 L 585.0 350.0" fill="none" stroke="#ffffff" stroke-width="9.333333333333334" stroke-linecap="square" stroke-linejoin="miter"/>
            <path d="M 608.3333333333334 280.0 L 608.3333333333334 350.0 M 596.6666666666666 280.0 L 620.0 280.0 M 596.6666666666666 350.0 L 620.0 350.0" fill="none" stroke="#ffffff" stroke-width="9.333333333333334" stroke-linecap="square"/>
            <path d="M 643.3333333333334 350.0 L 643.3333333333334 280.0 L 678.3333333333334 280.0 M 643.3333333333334 312.6666666666667 L 672.5 312.6666666666667" fill="none" stroke="#ffffff" stroke-width="9.333333333333334" stroke-linecap="square"/>
            <path d="M 695.8333333333334 280.0 L 742.5 280.0 M 719.1666666666667 280.0 L 719.1666666666667 350.0" fill="none" stroke="#ffffff" stroke-width="9.333333333333334" stroke-linecap="square"/>
        </g>
        
        <text x="850" y="450" font-family="Arial, sans-serif" font-size="20" 
              fill="#fbbf24" text-anchor="middle" font-weight="300" letter-spacing="2">
            EDGE OF BIKING TECHNOLOGY
        </text>
        
        
</svg>