<?xml version="1.0" encoding="UTF-8"?>
<svg xmlns="http://www.w3.org/2000/svg" viewBox="0 0 400 400" width="400" height="400">
    
    
        <rect width="400" height="400" fill="#0d4d3f"/>
        <rect x="50" y="50" width="300" height="300" fill="none" stroke="#fbbf24" stroke-width="4"/>
        
        <!-- Volcanic Rift Icon -->
        <g transform="translate(150, 120) scale(1.0)">
            <!-- Horizontal lines -->
            <path d="M10 30 L90 30" stroke="#fbbf24" stroke-width="3.0" stroke-linecap="square"/>
            <path d="M15 60 L85 60" stroke="#fbbf24" stroke-width="3.0" stroke-linecap="square"/>
            <path d="M20 90 L80 90" stroke="#fbbf24" stroke-width="3.0" stroke-linecap="square"/>
            <!-- Angular cracks -->
            <path d="M25 15 L28 30 M75 15 L72 30" stroke="#fbbf24" stroke-width="2.5" stroke-linecap="square"/>
            <path d="M30 45 L33 60 M70 45 L67 60" stroke="#fbbf24" stroke-width="2.5" stroke-linecap="square"/>
            <path d="M50 75 L53 90 M50 75 L47 90" stroke="#fbbf24" stroke-width="2.5" stroke-linecap="square"/>
        </g>
        
        <g>
            <path d="M 100.0 310.0 L 100.0 280.0 L 112.5 280.0 L 115.0 287.5 L 112.5 295.0 L 100.0 295.0 Z M 106.0 295.0 L 115.0 310.0" fill="none" stroke="#fbbf24" stroke-width="4.0" stroke-linecap="square" stroke-linejoin="miter"/>
            <path d="M 125.0 280.0 L 125.0 310.0 M 120.0 280.0 L 130.0 280.0 M 120.0 310.0 L 130.0 310.0" fill="none" stroke="#fbbf24" stroke-width="4.0" stroke-linecap="square"/>
            <path d="M 140.0 310.0 L 140.0 280.0 L 155.0 280.0 M 140.0 294.0 L 152.5 294.0" fill="none" stroke="#fbbf24" stroke-width="4.0" stroke-linecap="square"/>
            <path d="M 162.5 280.0 L 182.5 280.0 M 172.5 280.0 L 172.5 310.0" fill="none" stroke="#fbbf24" stroke-width="4.0" stroke-linecap="square"/>
        </g>
        
</svg>