<?xml version="1.0" encoding="UTF-8"?>
<svg xmlns="http://www.w3.org/2000/svg" viewBox="0 0 1080 1080" width="1080" height="1080">
    
    
        <rect width="1080" height="1080" fill="#0d4d3f"/>
        <rect x="40" y="40" width="1000" height="1000" fill="none" stroke="#fbbf24" stroke-width="2" opacity="0.3"/>
        <g opacity="0.15">
            
        <!-- Volcanic Rift Icon -->
        <g transform="translate(400, 400) scale(2.0)">
            <!-- Horizontal lines -->
            <path d="M10 30 L90 30" stroke="#fbbf24" stroke-width="6.0" stroke-linecap="square"/>
            <path d="M15 60 L85 60" stroke="#fbbf24" stroke-width="6.0" stroke-linecap="square"/>
            <path d="M20 90 L80 90" stroke="#fbbf24" stroke-width="6.0" stroke-linecap="square"/>
            <!-- Angular cracks -->
            <path d="M25 15 L28 30 M75 15 L72 30" stroke="#fbbf24" stroke-width="5.0" stroke-linecap="square"/>
            <path d="M30 45 L33 60 M70 45 L67 60" stroke="#fbbf24" stroke-width="5.0" stroke-linecap="square"/>
            <path d="M50 75 L53 90 M50 75 L47 90" stroke="#fbbf24" stroke-width="5.0" stroke-linecap="square"/>
        </g>
        
            <g>
            <path d="M 200.0 700.0 L 200.0 600.0 L 241.66666666666669 600.0 L 250.0 625.0 L 241.66666666666669 650.0 L 200.0 650.0 Z M 220.0 650.0 L 250.0 700.0" fill="none" stroke="#fbbf24" stroke-width="13.333333333333334" stroke-linecap="square" stroke-linejoin="miter"/>
            <path d="M 283.33333333333337 600.0 L 283.33333333333337 700.0 M 266.6666666666667 600.0 L 300.0 600.0 M 266.6666666666667 700.0 L 300.0 700.0" fill="none" stroke="#fbbf24" stroke-width="13.333333333333334" stroke-linecap="square"/>
            <path d="M 333.33333333333337 700.0 L 333.33333333333337 600.0 L 383.33333333333337 600.0 M 333.33333333333337 646.6666666666666 L 375.0 646.6666666666666" fill="none" stroke="#fbbf24" stroke-width="13.333333333333334" stroke-linecap="square"/>
            <path d="M 408.33333333333337 600.0 L 475.0 600.0 M 441.6666666666667 600.0 L 441.6666666666667 700.0" fill="none" stroke="#fbbf24" stroke-width="13.333333333333334" stroke-linecap="square"/>
        </g>
        </g>
        
</svg>