<?xml version="1.0" encoding="UTF-8"?>
<svg xmlns="http://www.w3.org/2000/svg" viewBox="0 0 300 100" width="300" height="100">
    <rect width="300" height="100" fill="#ffffff"/>
    
        
        <!-- Volcanic Rift Icon -->
        <g transform="translate(20, 20) scale(0.7)">
            <!-- Horizontal lines -->
            <path d="M10 30 L90 30" stroke="#fbbf24" stroke-width="2.0999999999999996" stroke-linecap="square"/>
            <path d="M15 60 L85 60" stroke="#fbbf24" stroke-width="2.0999999999999996" stroke-linecap="square"/>
            <path d="M20 90 L80 90" stroke="#fbbf24" stroke-width="2.0999999999999996" stroke-linecap="square"/>
            <!-- Angular cracks -->
            <path d="M25 15 L28 30 M75 15 L72 30" stroke="#fbbf24" stroke-width="1.75" stroke-linecap="square"/>
            <path d="M30 45 L33 60 M70 45 L67 60" stroke="#fbbf24" stroke-width="1.75" stroke-linecap="square"/>
            <path d="M50 75 L53 90 M50 75 L47 90" stroke="#fbbf24" stroke-width="1.75" stroke-linecap="square"/>
        </g>
        
        <g>
            <path d="M 100.0 95.0 L 100.0 50.0 L 118.75 50.0 L 122.5 61.25 L 118.75 72.5 L 100.0 72.5 Z M 109.0 72.5 L 122.5 95.0" fill="none" stroke="#0d4d3f" stroke-width="6.0" stroke-linecap="square" stroke-linejoin="miter"/>
            <path d="M 137.5 50.0 L 137.5 95.0 M 130.0 50.0 L 145.0 50.0 M 130.0 95.0 L 145.0 95.0" fill="none" stroke="#0d4d3f" stroke-width="6.0" stroke-linecap="square"/>
            <path d="M 160.0 95.0 L 160.0 50.0 L 182.5 50.0 M 160.0 71.0 L 178.75 71.0" fill="none" stroke="#0d4d3f" stroke-width="6.0" stroke-linecap="square"/>
            <path d="M 193.75 50.0 L 223.75 50.0 M 208.75 50.0 L 208.75 95.0" fill="none" stroke="#0d4d3f" stroke-width="6.0" stroke-linecap="square"/>
        </g>
        
</svg>