<?xml version="1.0" encoding="UTF-8"?>
<svg xmlns="http://www.w3.org/2000/svg" viewBox="0 0 1200 800" width="1200" height="800">
    
    
        
        <defs>
            <linearGradient id="ad-bg" x1="0%" y1="0%" x2="100%" y2="100%">
                <stop offset="0%" style="stop-color:#0a1f1a;stop-opacity:1" />
                <stop offset="100%" style="stop-color:#0d4d3f;stop-opacity:1" />
            </linearGradient>
        </defs>
        <rect width="1200" height="800" fill="url(#ad-bg)"/>
        
        
        <g>
            
        <path d="M530.0 240.0 L770.0 240.0" stroke="#fbbf24" stroke-width="9.0" stroke-linecap="square"/>
        <path d="M545.0 330.0 L755.0 330.0" stroke="#fbbf24" stroke-width="9.0" stroke-linecap="square"/>
        <path d="M560.0 420.0 L740.0 420.0" stroke="#fbbf24" stroke-width="9.0" stroke-linecap="square"/>
        
            
        <!-- Top crack with chain elements -->
        <path d="M575.0 195.0 L584.0 240.0" stroke="#fbbf24" stroke-width="7.5" stroke-linecap="square"/>
        <path d="M725.0 195.0 L716.0 240.0" stroke="#fbbf24" stroke-width="7.5" stroke-linecap="square"/>
        <!-- Chain link in top crack -->
        <circle cx="579.5" cy="217.5" r="9.0" fill="none" stroke="#fbbf24" stroke-width="4.5"/>
        <circle cx="720.5" cy="217.5" r="9.0" fill="none" stroke="#fbbf24" stroke-width="4.5"/>
        
            
        <!-- Middle crack with cog elements -->
        <path d="M590.0 285.0 L599.0 330.0" stroke="#fbbf24" stroke-width="7.5" stroke-linecap="square"/>
        <path d="M710.0 285.0 L701.0 330.0" stroke="#fbbf24" stroke-width="7.5" stroke-linecap="square"/>
        <!-- Cog/gear in middle crack -->
        <g transform="translate(594.5, 307.5)">
            <circle r="12.0" fill="none" stroke="#fbbf24" stroke-width="4.5"/>
            <circle r="6.0" fill="#fbbf24"/>
            <!-- Gear teeth -->
            <path d="M-12.0 0 L-16.5 -4.5 M12.0 0 L16.5 -4.5" stroke="#fbbf24" stroke-width="3.5999999999999996" stroke-linecap="round"/>
            <path d="M0 -12.0 L-4.5 -16.5 M0 12.0 L4.5 16.5" stroke="#fbbf24" stroke-width="3.5999999999999996" stroke-linecap="round"/>
        </g>
        <g transform="translate(705.5, 307.5)">
            <circle r="12.0" fill="none" stroke="#fbbf24" stroke-width="4.5"/>
            <circle r="6.0" fill="#fbbf24"/>
            <path d="M-12.0 0 L-16.5 -4.5 M12.0 0 L16.5 -4.5" stroke="#fbbf24" stroke-width="3.5999999999999996" stroke-linecap="round"/>
            <path d="M0 -12.0 L-4.5 -16.5 M0 12.0 L4.5 16.5" stroke="#fbbf24" stroke-width="3.5999999999999996" stroke-linecap="round"/>
        </g>
        
            
        <!-- Bottom crack with bike chain -->
        <path d="M650.0 375.0 L659.0 420.0" stroke="#fbbf24" stroke-width="7.5" stroke-linecap="square"/>
        <path d="M650.0 375.0 L641.0 420.0" stroke="#fbbf24" stroke-width="7.5" stroke-linecap="square"/>
        <!-- Chain links in bottom crack -->
        <g transform="translate(654.5, 397.5)">
            <rect x="-9.0" y="-6.0" width="18.0" height="12.0" rx="3.0" fill="none" stroke="#fbbf24" stroke-width="4.5"/>
            <circle cx="-10.5" cy="0" r="4.5" fill="none" stroke="#fbbf24" stroke-width="3.5999999999999996"/>
            <circle cx="10.5" cy="0" r="4.5" fill="none" stroke="#fbbf24" stroke-width="3.5999999999999996"/>
        </g>
        
            
        <path d="M548.0 180.0 L554.0 192.0" stroke="#fbbf24" stroke-width="4.5" stroke-linecap="square" opacity="0.7"/>
        <path d="M596.0 180.0 L590.0 192.0" stroke="#fbbf24" stroke-width="4.5" stroke-linecap="square" opacity="0.7"/>
        
        </g>
        
        
        <g>
            <path d="
            M 520.0 340.0 L 520.0 250.0
            L 557.5 250.0 L 565.0 272.5
            L 557.5 295.0 L 520.0 295.0
            M 538.0 295.0 L 565.0 340.0
        " stroke="#ffffff" stroke-width="12.0" 
                  fill="none" stroke-linecap="square" stroke-linejoin="miter"/>
            <path d="
            M 595.0 250.0 L 595.0 340.0
            M 580.0 250.0 L 610.0 250.0
            M 580.0 340.0 L 610.0 340.0
        " stroke="#ffffff" stroke-width="12.0" 
                  fill="none" stroke-linecap="square"/>
            <path d="
            M 640.0 340.0 L 640.0 250.0
            L 685.0 250.0
            M 640.0 292.0 L 677.5 292.0
        " stroke="#ffffff" stroke-width="12.0" 
                  fill="none" stroke-linecap="square"/>
            <path d="
            M 707.5 250.0 L 767.5 250.0
            M 737.5 250.0 L 737.5 340.0
        " stroke="#ffffff" stroke-width="12.0" 
                  fill="none" stroke-linecap="square"/>
        </g>
        
        
        <text x="600.0" y="450" font-family="system-ui, sans-serif" font-size="56" 
              font-weight="900" fill="#fbbf24" text-anchor="middle" letter-spacing="0.1em">
            I can, you can, we can
        </text>
        <text x="600.0" y="520" font-family="system-ui, sans-serif" font-size="72" 
              font-weight="900" fill="#fbbf24" text-anchor="middle" letter-spacing="0.2em">
            RIDE IT
        </text>
        <text x="600.0" y="650" font-family="system-ui, sans-serif" font-size="24" 
              fill="#ffffff" text-anchor="middle" opacity="0.9">
            Premium Road Cycling. Custom Built.
        </text>
        
        
</svg>