<?xml version="1.0" encoding="UTF-8"?>
<svg xmlns="http://www.w3.org/2000/svg" viewBox="0 0 2400 600" width="2400" height="600">
    
    
        <rect width="2400" height="600" fill="#0d4d3f"/>
        
        <!-- Volcanic Rift Icon -->
        <g transform="translate(200, 150) scale(2.0)">
            <!-- Horizontal lines -->
            <path d="M10 30 L90 30" stroke="#fbbf24" stroke-width="6.0" stroke-linecap="square"/>
            <path d="M15 60 L85 60" stroke="#fbbf24" stroke-width="6.0" stroke-linecap="square"/>
            <path d="M20 90 L80 90" stroke="#fbbf24" stroke-width="6.0" stroke-linecap="square"/>
            <!-- Angular cracks -->
            <path d="M25 15 L28 30 M75 15 L72 30" stroke="#fbbf24" stroke-width="5.0" stroke-linecap="square"/>
            <path d="M30 45 L33 60 M70 45 L67 60" stroke="#fbbf24" stroke-width="5.0" stroke-linecap="square"/>
            <path d="M50 75 L53 90 M50 75 L47 90" stroke="#fbbf24" stroke-width="5.0" stroke-linecap="square"/>
        </g>
        
        <g>
            <path d="M 600.0 370.0 L 600.0 250.0 L 650.0 250.0 L 660.0 280.0 L 650.0 310.0 L 600.0 310.0 Z M 624.0 310.0 L 660.0 370.0" fill="none" stroke="#ffffff" stroke-width="16.0" stroke-linecap="square" stroke-linejoin="miter"/>
            <path d="M 700.0 250.0 L 700.0 370.0 M 680.0 250.0 L 720.0 250.0 M 680.0 370.0 L 720.0 370.0" fill="none" stroke="#ffffff" stroke-width="16.0" stroke-linecap="square"/>
            <path d="M 760.0 370.0 L 760.0 250.0 L 820.0 250.0 M 760.0 306.0 L 810.0 306.0" fill="none" stroke="#ffffff" stroke-width="16.0" stroke-linecap="square"/>
            <path d="M 850.0 250.0 L 930.0 250.0 M 890.0 250.0 L 890.0 370.0" fill="none" stroke="#ffffff" stroke-width="16.0" stroke-linecap="square"/>
        </g>
        
        <text x="1800" y="450" font-family="Arial, sans-serif" font-size="32" 
              fill="#fbbf24" text-anchor="middle" font-weight="300" letter-spacing="2">
            EDGE OF BIKING TECHNOLOGY
        </text>
        
        
</svg>