<?xml version="1.0" encoding="UTF-8"?>
<svg xmlns="http://www.w3.org/2000/svg" viewBox="0 0 1080 1080" width="1080" height="1080">
    
        <defs>
            <radialGradient id="carousel1" cx="50%" cy="50%" r="70%">
                <stop offset="0%" style="stop-color:#0d4d3f;stop-opacity:1" />
                <stop offset="100%" style="stop-color:#0a1f1a;stop-opacity:1" />
            </radialGradient>
        </defs>
        <rect width="1080" height="1080" fill="url(#carousel1)"/>
        
        
        <g transform="translate(480.0, 460.0)">
            <path d="M35.0 105.0 L315.0 105.0" stroke="#fbbf24" stroke-width="10.5" stroke-linecap="square"/>
            <path d="M52.5 210.0 L297.5 210.0" stroke="#fbbf24" stroke-width="10.5" stroke-linecap="square"/>
            <path d="M70.0 315.0 L280.0 315.0" stroke="#fbbf24" stroke-width="10.5" stroke-linecap="square"/>
            <path d="M87.5 52.5 L98.0 105.0" stroke="#fbbf24" stroke-width="8.75" stroke-linecap="square"/>
            <circle cx="92.75" cy="78.75" r="10.5" fill="none" stroke="#fbbf24" stroke-width="5.25"/>
            <path d="M105.0 157.5 L115.5 210.0" stroke="#fbbf24" stroke-width="8.75" stroke-linecap="square"/>
            <g transform="translate(110.25, 183.75)">
                <circle r="14.0" fill="none" stroke="#fbbf24" stroke-width="5.25"/>
                <circle r="7.0" fill="#fbbf24"/>
            </g>
            <path d="M175.0 262.5 L185.5 315.0 M175.0 262.5 L164.5 315.0" stroke="#fbbf24" stroke-width="8.75" stroke-linecap="square"/>
        </g>
        
        
        <g>
            <path d="M 490.0 610.0 L 490.0 520.0 L 527.5 520.0 L 535.0 542.5 L 527.5 565.0 L 490.0 565.0 M 508.0 565.0 L 535.0 610.0" stroke="#ffffff" stroke-width="12.0" fill="none" stroke-linecap="square"/>
            <path d="M 565.0 520.0 L 565.0 610.0 M 550.0 520.0 L 580.0 520.0 M 550.0 610.0 L 580.0 610.0" stroke="#ffffff" stroke-width="12.0" fill="none" stroke-linecap="square"/>
            <path d="M 610.0 610.0 L 610.0 520.0 L 655.0 520.0 M 610.0 562.0 L 647.5 562.0" stroke="#ffffff" stroke-width="12.0" fill="none" stroke-linecap="square"/>
            <path d="M 677.5 520.0 L 737.5 520.0 M 707.5 520.0 L 707.5 610.0" stroke="#ffffff" stroke-width="12.0" fill="none" stroke-linecap="square"/>
        </g>
        
        
        <text x="540.0" y="660.0" font-family="system-ui, sans-serif" font-size="52" 
              font-weight="900" fill="#fbbf24" text-anchor="middle" letter-spacing="0.2em">
            RIDE IT
        </text>
        
</svg>