<?xml version="1.0" encoding="UTF-8"?>
<svg xmlns="http://www.w3.org/2000/svg" viewBox="0 0 280 450" width="280" height="450">
    <defs>
        <style>
            @import url('https://fonts.googleapis.com/css2?family=Inter:wght@300;400;700&amp;display=swap');
        </style>
    </defs>
    
        <rect width="280" height="450" fill="#0d4d3f"/>
        
        <!-- Volcanic Rift Icon -->
        <g transform="translate(90, 50) scale(1.0)">
            <!-- Horizontal lines -->
            <path d="M10 30 L90 30" stroke="#fbbf24" stroke-width="3" stroke-linecap="square"/>
            <path d="M15 60 L85 60" stroke="#fbbf24" stroke-width="3" stroke-linecap="square"/>
            <path d="M20 90 L80 90" stroke="#fbbf24" stroke-width="3" stroke-linecap="square"/>
            <!-- Angular cracks -->
            <path d="M25 15 L28 30 M75 15 L72 30" stroke="#fbbf24" stroke-width="2.5" stroke-linecap="square"/>
            <path d="M30 45 L33 60 M70 45 L67 60" stroke="#fbbf24" stroke-width="2.5" stroke-linecap="square"/>
            <path d="M50 75 L53 90 M50 75 L47 90" stroke="#fbbf24" stroke-width="2.5" stroke-linecap="square"/>
        </g>
        
        
        <g>
            <path d="
            M 60 270.0 L 60 220
            Q 76.66666666666667 220 80.83333333333334 230.0
            Q 83.33333333333334 236.66666666666666 80.83333333333334 243.33333333333334
            L 60 243.33333333333334
            M 68.33333333333333 243.33333333333334 Q 80.83333333333334 257.5 86.66666666666667 270.0
        " stroke="#ffffff" stroke-width="2.5" 
                  fill="none" stroke-linecap="round" stroke-linejoin="round"/>
            <path d="
            M 103.33333333333334 220 L 103.33333333333334 270.0
            M 95.0 220 Q 99.16666666666667 222.5 103.33333333333334 222.5
            Q 107.5 222.5 111.66666666666667 220
            M 95.0 270.0 Q 99.16666666666667 267.5 103.33333333333334 267.5
            Q 107.5 267.5 111.66666666666667 270.0
        " stroke="#ffffff" stroke-width="2.5" 
                  fill="none" stroke-linecap="round" stroke-linejoin="round"/>
            <path d="
            M 128.33333333333334 270.0 L 128.33333333333334 220
            Q 139.16666666666669 220 150.0 220
            M 128.33333333333334 243.33333333333334 Q 136.66666666666669 243.33333333333334 145.0 243.33333333333334
        " stroke="#ffffff" stroke-width="2.5" 
                  fill="none" stroke-linecap="round" stroke-linejoin="round"/>
            <path d="
            M 160.0 220 Q 175.0 220 191.66666666666669 220
            M 175.83333333333334 220 L 175.83333333333334 270.0
        " stroke="#ffffff" stroke-width="2.5" 
                  fill="none" stroke-linecap="round" stroke-linejoin="round"/>
        </g>
        
        
        <text x="140" y="340" font-family="'Inter', 'Helvetica Neue', sans-serif" font-size="12" 
              fill="#fbbf24" text-anchor="middle" font-weight="300" letter-spacing="3">
            CUSTOM BIKE SHOP
        </text>
        
        
</svg>