<?xml version="1.0" encoding="UTF-8"?>
<svg xmlns="http://www.w3.org/2000/svg" viewBox="0 0 600 200" width="600" height="200">
    <defs>
        <style>
            @import url('https://fonts.googleapis.com/css2?family=Inter:wght@300;400;700&amp;display=swap');
        </style>
    </defs>
    
        <rect width="600" height="200" fill="#0d4d3f"/>
        
        <!-- Volcanic Rift Icon -->
        <g transform="translate(20, 50) scale(1.0)">
            <!-- Horizontal lines -->
            <path d="M10 30 L90 30" stroke="#fbbf24" stroke-width="3" stroke-linecap="square"/>
            <path d="M15 60 L85 60" stroke="#fbbf24" stroke-width="3" stroke-linecap="square"/>
            <path d="M20 90 L80 90" stroke="#fbbf24" stroke-width="3" stroke-linecap="square"/>
            <!-- Angular cracks -->
            <path d="M25 15 L28 30 M75 15 L72 30" stroke="#fbbf24" stroke-width="2.5" stroke-linecap="square"/>
            <path d="M30 45 L33 60 M70 45 L67 60" stroke="#fbbf24" stroke-width="2.5" stroke-linecap="square"/>
            <path d="M50 75 L53 90 M50 75 L47 90" stroke="#fbbf24" stroke-width="2.5" stroke-linecap="square"/>
        </g>
        
        
        <g>
            <path d="
            M 180 130.0
            Q 178.0 110.0 180 80.0
            Q 182.0 70 198.0 70
            Q 210.0 75.0 208.0 88.0
            Q 206.0 98.0 192.0 98.0
            M 192.0 100.0
            Q 200.0 115.0 210.0 130.0
        " stroke="#ffffff" stroke-width="5.0" 
                  fill="none" stroke-linecap="round" stroke-linejoin="round"/>
            <path d="
            M 230.0 70
            Q 231.0 100.0 229.0 130.0
        " stroke="#ffffff" stroke-width="5.0" 
                  fill="none" stroke-linecap="round"/>
            <path d="
            M 249.0 130.0
            Q 250.0 100.0 249.0 73.0
            Q 260.0 70 278.0 72.0
            M 249.0 98.0
            Q 258.0 97.0 268.0 99.0
        " stroke="#ffffff" stroke-width="5.0" 
                  fill="none" stroke-linecap="round"/>
            <path d="
            M 288.0 72.0
            Q 305.0 70 328.0 72.0
            M 308.0 72.0
            Q 309.0 100.0 308.0 130.0
        " stroke="#ffffff" stroke-width="5.0" 
                  fill="none" stroke-linecap="round"/>
        </g>
        
        
</svg>