<?xml version="1.0" encoding="UTF-8"?>
<svg xmlns="http://www.w3.org/2000/svg" viewBox="0 0 450 180" width="450" height="180">
    <defs>
        <style>
            @import url('https://fonts.googleapis.com/css2?family=Inter:wght@300;400;700&amp;display=swap');
        </style>
    </defs>
    
        <rect width="450" height="180" fill="#0d4d3f"/>
        
        <g>
            <path d="
            M 50 135.0
            Q 47.833333333333336 113.33333333333333 50 80.83333333333333
            Q 52.166666666666664 70 69.5 70
            Q 82.5 75.41666666666667 80.33333333333333 89.5
            Q 78.16666666666666 100.33333333333333 63.0 100.33333333333333
            M 63.0 102.5
            Q 71.66666666666666 118.75 82.5 135.0
        " stroke="#ffffff" stroke-width="5.416666666666666" 
                  fill="none" stroke-linecap="round" stroke-linejoin="round"/>
            <path d="
            M 104.16666666666666 70
            Q 105.25 102.5 103.08333333333333 135.0
        " stroke="#ffffff" stroke-width="5.416666666666666" 
                  fill="none" stroke-linecap="round"/>
            <path d="
            M 124.75 135.0
            Q 125.83333333333333 102.5 124.75 73.25
            Q 136.66666666666666 70 156.16666666666666 72.16666666666667
            M 124.75 100.33333333333333
            Q 134.5 99.25 145.33333333333331 101.41666666666666
        " stroke="#ffffff" stroke-width="5.416666666666666" 
                  fill="none" stroke-linecap="round"/>
            <path d="
            M 167.0 72.16666666666667
            Q 185.41666666666666 70 210.33333333333331 72.16666666666667
            M 188.66666666666666 72.16666666666667
            Q 189.75 102.5 188.66666666666666 135.0
        " stroke="#ffffff" stroke-width="5.416666666666666" 
                  fill="none" stroke-linecap="round"/>
        </g>
        
        
</svg>