<?xml version="1.0" encoding="UTF-8"?>
<svg xmlns="http://www.w3.org/2000/svg" viewBox="0 0 180 60" width="180" height="60">
    <rect width="180" height="60" fill="#0d4d3f"/>
    
        
        <!-- Volcanic Rift Icon -->
        <g transform="translate(10, 15) scale(0.5)">
            <!-- Horizontal lines -->
            <path d="M10 30 L90 30" stroke="#fbbf24" stroke-width="1.5" stroke-linecap="square"/>
            <path d="M15 60 L85 60" stroke="#fbbf24" stroke-width="1.5" stroke-linecap="square"/>
            <path d="M20 90 L80 90" stroke="#fbbf24" stroke-width="1.5" stroke-linecap="square"/>
            <!-- Angular cracks -->
            <path d="M25 15 L28 30 M75 15 L72 30" stroke="#fbbf24" stroke-width="1.25" stroke-linecap="square"/>
            <path d="M30 45 L33 60 M70 45 L67 60" stroke="#fbbf24" stroke-width="1.25" stroke-linecap="square"/>
            <path d="M50 75 L53 90 M50 75 L47 90" stroke="#fbbf24" stroke-width="1.25" stroke-linecap="square"/>
        </g>
        
        <g>
            <path d="M 60.0 60.0 L 60.0 25.0 L 74.58333333333333 25.0 L 77.5 33.75 L 74.58333333333333 42.5 L 60.0 42.5 Z M 67.0 42.5 L 77.5 60.0" fill="none" stroke="#ffffff" stroke-width="4.666666666666667" stroke-linecap="square" stroke-linejoin="miter"/>
            <path d="M 89.16666666666667 25.0 L 89.16666666666667 60.0 M 83.33333333333334 25.0 L 95.0 25.0 M 83.33333333333334 60.0 L 95.0 60.0" fill="none" stroke="#ffffff" stroke-width="4.666666666666667" stroke-linecap="square"/>
            <path d="M 106.66666666666667 60.0 L 106.66666666666667 25.0 L 124.16666666666667 25.0 M 106.66666666666667 41.333333333333336 L 121.25 41.333333333333336" fill="none" stroke="#ffffff" stroke-width="4.666666666666667" stroke-linecap="square"/>
            <path d="M 132.91666666666669 25.0 L 156.25 25.0 M 144.58333333333334 25.0 L 144.58333333333334 60.0" fill="none" stroke="#ffffff" stroke-width="4.666666666666667" stroke-linecap="square"/>
        </g>
        
</svg>