<?xml version="1.0" encoding="UTF-8"?>
<svg xmlns="http://www.w3.org/2000/svg" viewBox="0 0 1920 1080" width="1920" height="1080">
    
    
        
        <g>
            
        <path d="M1735.0 95.0 L1855.0 95.0" stroke="#fbbf24" stroke-width="4.5" stroke-linecap="square"/>
        <path d="M1742.5 140.0 L1847.5 140.0" stroke="#fbbf24" stroke-width="4.5" stroke-linecap="square"/>
        <path d="M1750.0 185.0 L1840.0 185.0" stroke="#fbbf24" stroke-width="4.5" stroke-linecap="square"/>
        
            
        <!-- Top crack with chain elements -->
        <path d="M1757.5 72.5 L1762.0 95.0" stroke="#fbbf24" stroke-width="3.75" stroke-linecap="square"/>
        <path d="M1832.5 72.5 L1828.0 95.0" stroke="#fbbf24" stroke-width="3.75" stroke-linecap="square"/>
        <!-- Chain link in top crack -->
        <circle cx="1759.75" cy="83.75" r="4.5" fill="none" stroke="#fbbf24" stroke-width="2.25"/>
        <circle cx="1830.25" cy="83.75" r="4.5" fill="none" stroke="#fbbf24" stroke-width="2.25"/>
        
            
        <!-- Middle crack with cog elements -->
        <path d="M1765.0 117.5 L1769.5 140.0" stroke="#fbbf24" stroke-width="3.75" stroke-linecap="square"/>
        <path d="M1825.0 117.5 L1820.5 140.0" stroke="#fbbf24" stroke-width="3.75" stroke-linecap="square"/>
        <!-- Cog/gear in middle crack -->
        <g transform="translate(1767.25, 128.75)">
            <circle r="6.0" fill="none" stroke="#fbbf24" stroke-width="2.25"/>
            <circle r="3.0" fill="#fbbf24"/>
            <!-- Gear teeth -->
            <path d="M-6.0 0 L-8.25 -2.25 M6.0 0 L8.25 -2.25" stroke="#fbbf24" stroke-width="1.7999999999999998" stroke-linecap="round"/>
            <path d="M0 -6.0 L-2.25 -8.25 M0 6.0 L2.25 8.25" stroke="#fbbf24" stroke-width="1.7999999999999998" stroke-linecap="round"/>
        </g>
        <g transform="translate(1822.75, 128.75)">
            <circle r="6.0" fill="none" stroke="#fbbf24" stroke-width="2.25"/>
            <circle r="3.0" fill="#fbbf24"/>
            <path d="M-6.0 0 L-8.25 -2.25 M6.0 0 L8.25 -2.25" stroke="#fbbf24" stroke-width="1.7999999999999998" stroke-linecap="round"/>
            <path d="M0 -6.0 L-2.25 -8.25 M0 6.0 L2.25 8.25" stroke="#fbbf24" stroke-width="1.7999999999999998" stroke-linecap="round"/>
        </g>
        
            
        <!-- Bottom crack with bike chain -->
        <path d="M1795.0 162.5 L1799.5 185.0" stroke="#fbbf24" stroke-width="3.75" stroke-linecap="square"/>
        <path d="M1795.0 162.5 L1790.5 185.0" stroke="#fbbf24" stroke-width="3.75" stroke-linecap="square"/>
        <!-- Chain links in bottom crack -->
        <g transform="translate(1797.25, 173.75)">
            <rect x="-4.5" y="-3.0" width="9.0" height="6.0" rx="1.5" fill="none" stroke="#fbbf24" stroke-width="2.25"/>
            <circle cx="-5.25" cy="0" r="2.25" fill="none" stroke="#fbbf24" stroke-width="1.7999999999999998"/>
            <circle cx="5.25" cy="0" r="2.25" fill="none" stroke="#fbbf24" stroke-width="1.7999999999999998"/>
        </g>
        
            
        <path d="M1744.0 65.0 L1747.0 71.0" stroke="#fbbf24" stroke-width="2.25" stroke-linecap="square" opacity="0.7"/>
        <path d="M1768.0 65.0 L1765.0 71.0" stroke="#fbbf24" stroke-width="2.25" stroke-linecap="square" opacity="0.7"/>
        
        </g>
        
        
        <g>
            <path d="
            M 1740.0 120.0 L 1740.0 80.0
            L 1756.6666666666667 80.0 L 1760.0 90.0
            L 1756.6666666666667 100.0 L 1740.0 100.0
            M 1748.0 100.0 L 1760.0 120.0
        " stroke="#ffffff" stroke-width="5.333333333333333" 
                  fill="none" stroke-linecap="square" stroke-linejoin="miter"/>
            <path d="
            M 1773.3333333333333 80.0 L 1773.3333333333333 120.0
            M 1766.6666666666667 80.0 L 1780.0 80.0
            M 1766.6666666666667 120.0 L 1780.0 120.0
        " stroke="#ffffff" stroke-width="5.333333333333333" 
                  fill="none" stroke-linecap="square"/>
            <path d="
            M 1793.3333333333333 120.0 L 1793.3333333333333 80.0
            L 1813.3333333333333 80.0
            M 1793.3333333333333 98.66666666666666 L 1810.0 98.66666666666666
        " stroke="#ffffff" stroke-width="5.333333333333333" 
                  fill="none" stroke-linecap="square"/>
            <path d="
            M 1823.3333333333333 80.0 L 1850.0 80.0
            M 1836.6666666666667 80.0 L 1836.6666666666667 120.0
        " stroke="#ffffff" stroke-width="5.333333333333333" 
                  fill="none" stroke-linecap="square"/>
        </g>
        
        
        <text x="960.0" y="980" font-family="system-ui, sans-serif" font-size="48" 
              font-weight="900" fill="#fbbf24" text-anchor="middle" letter-spacing="0.15em" 
              opacity="0.95">
            RIDE IT
        </text>
        
        
</svg>