<?xml version="1.0" encoding="UTF-8"?>
<svg xmlns="http://www.w3.org/2000/svg" viewBox="0 0 1200 800" width="1200" height="800">
    
            <defs>
                <linearGradient id="grad-4" x1="0%" y1="0%" x2="100%" y2="100%">
                    <stop offset="0%" style="stop-color:#0a1f1a;stop-opacity:1" />
                    <stop offset="100%" style="stop-color:#0d4d3f;stop-opacity:1" />
                </linearGradient>
            </defs>
            <rect width="1200" height="800" fill="url(#grad-4)"/>
            
            
        <g transform="translate(520.0, 300.0)">
            <path d="M25.0 75.0 L225.0 75.0" stroke="#fbbf24" stroke-width="7.5" stroke-linecap="square"/>
            <path d="M37.5 150.0 L212.5 150.0" stroke="#fbbf24" stroke-width="7.5" stroke-linecap="square"/>
            <path d="M50.0 225.0 L200.0 225.0" stroke="#fbbf24" stroke-width="7.5" stroke-linecap="square"/>
            <path d="M62.5 37.5 L70.0 75.0" stroke="#fbbf24" stroke-width="6.25" stroke-linecap="square"/>
            <circle cx="66.25" cy="56.25" r="7.5" fill="none" stroke="#fbbf24" stroke-width="3.75"/>
            <path d="M75.0 112.5 L82.5 150.0" stroke="#fbbf24" stroke-width="6.25" stroke-linecap="square"/>
            <g transform="translate(78.75, 131.25)">
                <circle r="10.0" fill="none" stroke="#fbbf24" stroke-width="3.75"/>
                <circle r="5.0" fill="#fbbf24"/>
            </g>
            <path d="M125.0 187.5 L132.5 225.0 M125.0 187.5 L117.5 225.0" stroke="#fbbf24" stroke-width="6.25" stroke-linecap="square"/>
        </g>
        
            
        <g>
            <path d="M 530.0 440.0 L 530.0 370.0 L 559.1666666666666 370.0 L 565.0 387.5 L 559.1666666666666 405.0 L 530.0 405.0 M 544.0 405.0 L 565.0 440.0" stroke="#ffffff" stroke-width="9.333333333333334" fill="none" stroke-linecap="square"/>
            <path d="M 588.3333333333334 370.0 L 588.3333333333334 440.0 M 576.6666666666666 370.0 L 600.0 370.0 M 576.6666666666666 440.0 L 600.0 440.0" stroke="#ffffff" stroke-width="9.333333333333334" fill="none" stroke-linecap="square"/>
            <path d="M 623.3333333333334 440.0 L 623.3333333333334 370.0 L 658.3333333333334 370.0 M 623.3333333333334 402.6666666666667 L 652.5 402.6666666666667" stroke="#ffffff" stroke-width="9.333333333333334" fill="none" stroke-linecap="square"/>
            <path d="M 675.8333333333334 370.0 L 722.5 370.0 M 699.1666666666667 370.0 L 699.1666666666667 440.0" stroke="#ffffff" stroke-width="9.333333333333334" fill="none" stroke-linecap="square"/>
        </g>
        
            
                <text x="600.0" y="500.0" font-family="system-ui, sans-serif" font-size="64" 
                      font-weight="900" fill="#fbbf24" text-anchor="middle" letter-spacing="0.15em">
                    Ride It
                </text>
                
                <text x="600.0" y="560.0" font-family="system-ui, sans-serif" font-size="48" 
                      font-weight="900" fill="#fbbf24" text-anchor="middle" letter-spacing="0.15em">
                    Premium Road Cycling
                </text>
                
</svg>