<?xml version="1.0" encoding="UTF-8"?>
<svg xmlns="http://www.w3.org/2000/svg" viewBox="0 0 700 250" width="700" height="250">
    <defs>
        <style>
            @import url('https://fonts.googleapis.com/css2?family=Inter:wght@300;400;700&amp;display=swap');
        </style>
    </defs>
    
        <rect width="700" height="250" fill="#0d4d3f"/>
        <polygon points="0,0 700,0 650,250 0,250" fill="#0f3d32"/>
        <g transform="translate(50, 50) rotate(-5)">
            
        <!-- Volcanic Rift Icon -->
        <g transform="translate(0, 0) scale(1.0)">
            <!-- Horizontal lines -->
            <path d="M10 30 L90 30" stroke="#fbbf24" stroke-width="3" stroke-linecap="square"/>
            <path d="M15 60 L85 60" stroke="#fbbf24" stroke-width="3" stroke-linecap="square"/>
            <path d="M20 90 L80 90" stroke="#fbbf24" stroke-width="3" stroke-linecap="square"/>
            <!-- Angular cracks -->
            <path d="M25 15 L28 30 M75 15 L72 30" stroke="#fbbf24" stroke-width="2.5" stroke-linecap="square"/>
            <path d="M30 45 L33 60 M70 45 L67 60" stroke="#fbbf24" stroke-width="2.5" stroke-linecap="square"/>
            <path d="M50 75 L53 90 M50 75 L47 90" stroke="#fbbf24" stroke-width="2.5" stroke-linecap="square"/>
        </g>
        
        </g>
        <g transform="translate(200, 20) rotate(-3)">
            
        <g>
            <path d="
            M 0.0 140.0 L 0.0 70.0
            L 29.166666666666668 70.0 L 35.0 87.5
            L 29.166666666666668 105.0 L 0.0 105.0
            M 14.0 105.0 L 35.0 140.0
        " stroke="#ffffff" stroke-width="9.333333333333334" 
                  fill="none" stroke-linecap="square" stroke-linejoin="miter"/>
            <path d="
            M 58.333333333333336 70.0 L 58.333333333333336 140.0
            M 46.66666666666667 70.0 L 70.0 70.0
            M 46.66666666666667 140.0 L 70.0 140.0
        " stroke="#ffffff" stroke-width="9.333333333333334" 
                  fill="none" stroke-linecap="square"/>
            <path d="
            M 93.33333333333334 140.0 L 93.33333333333334 70.0
            L 128.33333333333334 70.0
            M 93.33333333333334 102.66666666666667 L 122.50000000000001 102.66666666666667
        " stroke="#ffffff" stroke-width="9.333333333333334" 
                  fill="none" stroke-linecap="square"/>
            <path d="
            M 145.83333333333334 70.0 L 192.5 70.0
            M 169.16666666666669 70.0 L 169.16666666666669 140.0
        " stroke="#ffffff" stroke-width="9.333333333333334" 
                  fill="none" stroke-linecap="square"/>
        </g>
        
        </g>
        
</svg>