<?xml version="1.0" encoding="UTF-8"?>
<svg xmlns="http://www.w3.org/2000/svg" viewBox="0 0 600 300" width="600" height="300">
    <defs>
        <style>
            @import url('https://fonts.googleapis.com/css2?family=Inter:wght@300;400;700&amp;display=swap');
        </style>
    </defs>
    
        <g opacity="0.15">
            
        <!-- Volcanic Rift Icon -->
        <g transform="translate(50, 50) scale(1.5)">
            <!-- Horizontal lines -->
            <path d="M10 30 L90 30" stroke="#000000" stroke-width="3" stroke-linecap="square"/>
            <path d="M15 60 L85 60" stroke="#000000" stroke-width="3" stroke-linecap="square"/>
            <path d="M20 90 L80 90" stroke="#000000" stroke-width="3" stroke-linecap="square"/>
            <!-- Angular cracks -->
            <path d="M25 15 L28 30 M75 15 L72 30" stroke="#000000" stroke-width="2.5" stroke-linecap="square"/>
            <path d="M30 45 L33 60 M70 45 L67 60" stroke="#000000" stroke-width="2.5" stroke-linecap="square"/>
            <path d="M50 75 L53 90 M50 75 L47 90" stroke="#000000" stroke-width="2.5" stroke-linecap="square"/>
        </g>
        
            
        <g>
            <path d="
            M 220.0 180.0 L 220.0 100.0
            L 253.33333333333331 100.0 L 260.0 120.0
            L 253.33333333333331 140.0 L 220.0 140.0
            M 236.0 140.0 L 260.0 180.0
        " stroke="#000000" stroke-width="10.666666666666666" 
                  fill="none" stroke-linecap="square" stroke-linejoin="miter"/>
            <path d="
            M 286.66666666666663 100.0 L 286.66666666666663 180.0
            M 273.3333333333333 100.0 L 300.0 100.0
            M 273.3333333333333 180.0 L 300.0 180.0
        " stroke="#000000" stroke-width="10.666666666666666" 
                  fill="none" stroke-linecap="square"/>
            <path d="
            M 326.66666666666663 180.0 L 326.66666666666663 100.0
            L 366.66666666666663 100.0
            M 326.66666666666663 137.33333333333331 L 360.0 137.33333333333331
        " stroke="#000000" stroke-width="10.666666666666666" 
                  fill="none" stroke-linecap="square"/>
            <path d="
            M 386.66666666666663 100.0 L 440.0 100.0
            M 413.3333333333333 100.0 L 413.3333333333333 180.0
        " stroke="#000000" stroke-width="10.666666666666666" 
                  fill="none" stroke-linecap="square"/>
        </g>
        
        </g>
        
</svg>