<?xml version="1.0" encoding="UTF-8"?>
<svg xmlns="http://www.w3.org/2000/svg" viewBox="0 0 350 120" width="350" height="120">
    <defs>
        <style>
            @import url('https://fonts.googleapis.com/css2?family=Inter:wght@300;400;700&amp;display=swap');
        </style>
    </defs>
    
        
        <!-- Volcanic Rift Icon -->
        <g transform="translate(0, 0) scale(0.8)">
            <!-- Horizontal lines -->
            <path d="M10 30 L90 30" stroke="#0d4d3f" stroke-width="3" stroke-linecap="square"/>
            <path d="M15 60 L85 60" stroke="#0d4d3f" stroke-width="3" stroke-linecap="square"/>
            <path d="M20 90 L80 90" stroke="#0d4d3f" stroke-width="3" stroke-linecap="square"/>
            <!-- Angular cracks -->
            <path d="M25 15 L28 30 M75 15 L72 30" stroke="#0d4d3f" stroke-width="2.5" stroke-linecap="square"/>
            <path d="M30 45 L33 60 M70 45 L67 60" stroke="#0d4d3f" stroke-width="2.5" stroke-linecap="square"/>
            <path d="M50 75 L53 90 M50 75 L47 90" stroke="#0d4d3f" stroke-width="2.5" stroke-linecap="square"/>
        </g>
        
        
        <g>
            <path d="
            M 100.0 85.0 L 100.0 40.0
            L 118.75 40.0 L 122.5 51.25
            L 118.75 62.5 L 100.0 62.5
            M 109.0 62.5 L 122.5 85.0
        " stroke="#0d4d3f" stroke-width="6.0" 
                  fill="none" stroke-linecap="square" stroke-linejoin="miter"/>
            <path d="
            M 137.5 40.0 L 137.5 85.0
            M 130.0 40.0 L 145.0 40.0
            M 130.0 85.0 L 145.0 85.0
        " stroke="#0d4d3f" stroke-width="6.0" 
                  fill="none" stroke-linecap="square"/>
            <path d="
            M 160.0 85.0 L 160.0 40.0
            L 182.5 40.0
            M 160.0 61.0 L 178.75 61.0
        " stroke="#0d4d3f" stroke-width="6.0" 
                  fill="none" stroke-linecap="square"/>
            <path d="
            M 193.75 40.0 L 223.75 40.0
            M 208.75 40.0 L 208.75 85.0
        " stroke="#0d4d3f" stroke-width="6.0" 
                  fill="none" stroke-linecap="square"/>
        </g>
        
        
</svg>