<?xml version="1.0" encoding="UTF-8"?>
<svg xmlns="http://www.w3.org/2000/svg" viewBox="0 0 250 250" width="250" height="250">
    <defs>
        <style>
            @import url('https://fonts.googleapis.com/css2?family=Inter:wght@300;400;700&amp;display=swap');
        </style>
    </defs>
    
        <rect width="250" height="250" fill="#0d4d3f" 
              stroke="#fbbf24" stroke-width="3"/>
        <rect x="15" y="15" width="220" height="220" fill="none" 
              stroke="#fbbf24" stroke-width="1"/>
        
        <!-- Volcanic Rift Icon -->
        <g transform="translate(75, 75) scale(1.0)">
            <!-- Horizontal lines -->
            <path d="M10 30 L90 30" stroke="#fbbf24" stroke-width="3" stroke-linecap="square"/>
            <path d="M15 60 L85 60" stroke="#fbbf24" stroke-width="3" stroke-linecap="square"/>
            <path d="M20 90 L80 90" stroke="#fbbf24" stroke-width="3" stroke-linecap="square"/>
            <!-- Angular cracks -->
            <path d="M25 15 L28 30 M75 15 L72 30" stroke="#fbbf24" stroke-width="2.5" stroke-linecap="square"/>
            <path d="M30 45 L33 60 M70 45 L67 60" stroke="#fbbf24" stroke-width="2.5" stroke-linecap="square"/>
            <path d="M50 75 L53 90 M50 75 L47 90" stroke="#fbbf24" stroke-width="2.5" stroke-linecap="square"/>
        </g>
        
        
        <g>
            <path d="
            M 50 210.0 L 50 180
            Q 60.0 180 62.5 186.0
            Q 64.0 190.0 62.5 194.0
            L 50 194.0
            M 55.0 194.0 Q 62.5 202.5 66.0 210.0
        " stroke="#ffffff" stroke-width="1.5" 
                  fill="none" stroke-linecap="round" stroke-linejoin="round"/>
            <path d="
            M 76.0 180 L 76.0 210.0
            M 71.0 180 Q 73.5 181.5 76.0 181.5
            Q 78.5 181.5 81.0 180
            M 71.0 210.0 Q 73.5 208.5 76.0 208.5
            Q 78.5 208.5 81.0 210.0
        " stroke="#ffffff" stroke-width="1.5" 
                  fill="none" stroke-linecap="round" stroke-linejoin="round"/>
            <path d="
            M 91.0 210.0 L 91.0 180
            Q 97.5 180 104.0 180
            M 91.0 194.0 Q 96.0 194.0 101.0 194.0
        " stroke="#ffffff" stroke-width="1.5" 
                  fill="none" stroke-linecap="round" stroke-linejoin="round"/>
            <path d="
            M 110.0 180 Q 119.0 180 129.0 180
            M 119.5 180 L 119.5 210.0
        " stroke="#ffffff" stroke-width="1.5" 
                  fill="none" stroke-linecap="round" stroke-linejoin="round"/>
        </g>
        
        
</svg>