<?xml version="1.0" encoding="UTF-8"?>
<svg xmlns="http://www.w3.org/2000/svg" viewBox="0 0 600 200" width="600" height="200">
    <defs>
        <style>
            @import url('https://fonts.googleapis.com/css2?family=Inter:wght@300;400;700&amp;display=swap');
        </style>
    </defs>
    
        <rect width="600" height="200" fill="#0f3d32"/>
        
        <g>
            <path d="
            M 50.0 130.0 L 50.0 70.0
            L 75.0 70.0 L 80.0 85.0
            L 75.0 100.0 L 50.0 100.0
            M 62.0 100.0 L 80.0 130.0
        " stroke="#ffffff" stroke-width="8.0" 
                  fill="none" stroke-linecap="square" stroke-linejoin="miter"/>
            <path d="
            M 100.0 70.0 L 100.0 130.0
            M 90.0 70.0 L 110.0 70.0
            M 90.0 130.0 L 110.0 130.0
        " stroke="#ffffff" stroke-width="8.0" 
                  fill="none" stroke-linecap="square"/>
            <path d="
            M 130.0 130.0 L 130.0 70.0
            L 160.0 70.0
            M 130.0 98.0 L 155.0 98.0
        " stroke="#ffffff" stroke-width="8.0" 
                  fill="none" stroke-linecap="square"/>
            <path d="
            M 175.0 70.0 L 215.0 70.0
            M 195.0 70.0 L 195.0 130.0
        " stroke="#ffffff" stroke-width="8.0" 
                  fill="none" stroke-linecap="square"/>
        </g>
        
        
        <!-- Volcanic Rift Icon -->
        <g transform="translate(450, 50) scale(1.0)">
            <!-- Horizontal lines -->
            <path d="M10 30 L90 30" stroke="#fbbf24" stroke-width="3" stroke-linecap="square"/>
            <path d="M15 60 L85 60" stroke="#fbbf24" stroke-width="3" stroke-linecap="square"/>
            <path d="M20 90 L80 90" stroke="#fbbf24" stroke-width="3" stroke-linecap="square"/>
            <!-- Angular cracks -->
            <path d="M25 15 L28 30 M75 15 L72 30" stroke="#fbbf24" stroke-width="2.5" stroke-linecap="square"/>
            <path d="M30 45 L33 60 M70 45 L67 60" stroke="#fbbf24" stroke-width="2.5" stroke-linecap="square"/>
            <path d="M50 75 L53 90 M50 75 L47 90" stroke="#fbbf24" stroke-width="2.5" stroke-linecap="square"/>
        </g>
        
        
</svg>