<?xml version="1.0" encoding="UTF-8"?>
<svg xmlns="http://www.w3.org/2000/svg" viewBox="0 0 1200 200" width="1200" height="200">
    <defs>
        <style>
            @import url('https://fonts.googleapis.com/css2?family=Inter:wght@300;400;700&amp;display=swap');
        </style>
    </defs>
    
        <rect width="1200" height="200" fill="#0d4d3f"/>
        <line x1="0" y1="195" x2="1200" y2="195" stroke="#fbbf24" stroke-width="5"/>
        
        <!-- Volcanic Rift Icon -->
        <g transform="translate(100, 50) scale(1.0)">
            <!-- Horizontal lines -->
            <path d="M10 30 L90 30" stroke="#fbbf24" stroke-width="3" stroke-linecap="square"/>
            <path d="M15 60 L85 60" stroke="#fbbf24" stroke-width="3" stroke-linecap="square"/>
            <path d="M20 90 L80 90" stroke="#fbbf24" stroke-width="3" stroke-linecap="square"/>
            <!-- Angular cracks -->
            <path d="M25 15 L28 30 M75 15 L72 30" stroke="#fbbf24" stroke-width="2.5" stroke-linecap="square"/>
            <path d="M30 45 L33 60 M70 45 L67 60" stroke="#fbbf24" stroke-width="2.5" stroke-linecap="square"/>
            <path d="M50 75 L53 90 M50 75 L47 90" stroke="#fbbf24" stroke-width="2.5" stroke-linecap="square"/>
        </g>
        
        
        <g>
            <path d="
            M 300.0 140.0 L 300.0 70.0
            L 329.1666666666667 70.0 L 335.0 87.5
            L 329.1666666666667 105.0 L 300.0 105.0
            M 314.0 105.0 L 335.0 140.0
        " stroke="#ffffff" stroke-width="9.333333333333334" 
                  fill="none" stroke-linecap="square" stroke-linejoin="miter"/>
            <path d="
            M 358.3333333333333 70.0 L 358.3333333333333 140.0
            M 346.6666666666667 70.0 L 370.0 70.0
            M 346.6666666666667 140.0 L 370.0 140.0
        " stroke="#ffffff" stroke-width="9.333333333333334" 
                  fill="none" stroke-linecap="square"/>
            <path d="
            M 393.33333333333337 140.0 L 393.33333333333337 70.0
            L 428.33333333333337 70.0
            M 393.33333333333337 102.66666666666667 L 422.5 102.66666666666667
        " stroke="#ffffff" stroke-width="9.333333333333334" 
                  fill="none" stroke-linecap="square"/>
            <path d="
            M 445.83333333333337 70.0 L 492.5 70.0
            M 469.1666666666667 70.0 L 469.1666666666667 140.0
        " stroke="#ffffff" stroke-width="9.333333333333334" 
                  fill="none" stroke-linecap="square"/>
        </g>
        
        
        <text x="850" y="120" font-family="Arial, sans-serif" font-size="16" 
              fill="#fbbf24" text-anchor="middle" font-weight="300" letter-spacing="2">
            CUSTOM BIKE SHOP
        </text>
        
        
</svg>