<?xml version="1.0" encoding="UTF-8"?>
<svg xmlns="http://www.w3.org/2000/svg" viewBox="0 0 370 120" width="370" height="120">
    <defs>
        <style>
            @import url('https://fonts.googleapis.com/css2?family=Inter:wght@300;400;700&amp;display=swap');
        </style>
    </defs>
    
        
        <!-- Volcanic Rift Icon -->
        <g transform="translate(0, 0) scale(0.9)">
            <!-- Horizontal lines -->
            <path d="M10 30 L90 30" stroke="#fbbf24" stroke-width="3" stroke-linecap="square"/>
            <path d="M15 60 L85 60" stroke="#fbbf24" stroke-width="3" stroke-linecap="square"/>
            <path d="M20 90 L80 90" stroke="#fbbf24" stroke-width="3" stroke-linecap="square"/>
            <!-- Angular cracks -->
            <path d="M25 15 L28 30 M75 15 L72 30" stroke="#fbbf24" stroke-width="2.5" stroke-linecap="square"/>
            <path d="M30 45 L33 60 M70 45 L67 60" stroke="#fbbf24" stroke-width="2.5" stroke-linecap="square"/>
            <path d="M50 75 L53 90 M50 75 L47 90" stroke="#fbbf24" stroke-width="2.5" stroke-linecap="square"/>
        </g>
        
        
        <g>
            <path d="
            M 116.66666666666667 90.0 L 125.0 40
            L 141.66666666666666 40
            Q 145.83333333333334 50.0 141.66666666666666 60.833333333333336
            L 125.0 60.833333333333336
            M 129.16666666666666 60.833333333333336 L 141.66666666666666 90.0
        " stroke="#fbbf24" stroke-width="2.916666666666667" 
                  fill="none" stroke-linecap="round" stroke-linejoin="round"/>
            <path d="
            M 160.0 40 L 151.66666666666669 90.0
        " stroke="#fbbf24" stroke-width="2.916666666666667" 
                  fill="none" stroke-linecap="round"/>
            <path d="
            M 168.33333333333334 90.0 L 176.66666666666669 40
            L 200.0 40
            M 172.5 63.333333333333336 L 191.66666666666669 63.333333333333336
        " stroke="#fbbf24" stroke-width="2.916666666666667" 
                  fill="none" stroke-linecap="round"/>
            <path d="
            M 210.0 40 L 239.16666666666669 40
            M 225.0 40 L 216.66666666666669 90.0
        " stroke="#fbbf24" stroke-width="2.916666666666667" 
                  fill="none" stroke-linecap="round"/>
        </g>
        
        
</svg>