<?xml version="1.0" encoding="UTF-8"?>
<svg xmlns="http://www.w3.org/2000/svg" viewBox="0 0 400 450" width="400" height="450">
    <defs>
        <style>
            @import url('https://fonts.googleapis.com/css2?family=Inter:wght@300;400;700&amp;display=swap');
        </style>
    </defs>
    
        <rect width="400" height="450" fill="#0d4d3f"/>
        <line x1="50" y1="40" x2="350" y2="40" stroke="#fbbf24" stroke-width="2"/>
        
        <!-- Volcanic Rift Icon -->
        <g transform="translate(150, 80) scale(1.0)">
            <!-- Horizontal lines -->
            <path d="M10 30 L90 30" stroke="#fbbf24" stroke-width="3" stroke-linecap="square"/>
            <path d="M15 60 L85 60" stroke="#fbbf24" stroke-width="3" stroke-linecap="square"/>
            <path d="M20 90 L80 90" stroke="#fbbf24" stroke-width="3" stroke-linecap="square"/>
            <!-- Angular cracks -->
            <path d="M25 15 L28 30 M75 15 L72 30" stroke="#fbbf24" stroke-width="2.5" stroke-linecap="square"/>
            <path d="M30 45 L33 60 M70 45 L67 60" stroke="#fbbf24" stroke-width="2.5" stroke-linecap="square"/>
            <path d="M50 75 L53 90 M50 75 L47 90" stroke="#fbbf24" stroke-width="2.5" stroke-linecap="square"/>
        </g>
        
        
        <g>
            <path d="
            M 100.0 305.0 L 100.0 250.0
            L 122.91666666666666 250.0 L 127.5 263.75
            L 122.91666666666666 277.5 L 100.0 277.5
            M 111.0 277.5 L 127.5 305.0
        " stroke="#ffffff" stroke-width="7.333333333333333" 
                  fill="none" stroke-linecap="square" stroke-linejoin="miter"/>
            <path d="
            M 145.83333333333331 250.0 L 145.83333333333331 305.0
            M 136.66666666666666 250.0 L 155.0 250.0
            M 136.66666666666666 305.0 L 155.0 305.0
        " stroke="#ffffff" stroke-width="7.333333333333333" 
                  fill="none" stroke-linecap="square"/>
            <path d="
            M 173.33333333333331 305.0 L 173.33333333333331 250.0
            L 200.83333333333331 250.0
            M 173.33333333333331 275.6666666666667 L 196.25 275.6666666666667
        " stroke="#ffffff" stroke-width="7.333333333333333" 
                  fill="none" stroke-linecap="square"/>
            <path d="
            M 214.58333333333331 250.0 L 251.25 250.0
            M 232.91666666666666 250.0 L 232.91666666666666 305.0
        " stroke="#ffffff" stroke-width="7.333333333333333" 
                  fill="none" stroke-linecap="square"/>
        </g>
        
        <line x1="50" y1="360" x2="350" y2="360" stroke="#fbbf24" stroke-width="2"/>
        
        <text x="200" y="400" font-family="Arial, sans-serif" font-size="13" 
              fill="#fbbf24" text-anchor="middle" font-weight="300" letter-spacing="2">
            CUSTOM BIKE SHOP
        </text>
        
        
</svg>