<svg width="180" height="60" viewBox="0 0 180 60" fill="none" xmlns="http://www.w3.org/2000/svg">
  <!-- Compact icon -->
  <g transform="translate(5, 15)">
    <path d="M5 10 L35 10" stroke="#fbbf24" stroke-width="2.5" stroke-linecap="square"/>
    <path d="M8 20 L32 20" stroke="#fbbf24" stroke-width="2.5" stroke-linecap="square"/>
    <path d="M11 30 L29 30" stroke="#fbbf24" stroke-width="2.5" stroke-linecap="square"/>
    <path d="M9 2 L11 10 M31 2 L29 10" stroke="#fbbf24" stroke-width="2" stroke-linecap="square"/>
    <path d="M12 12 L14 20 M28 12 L26 20" stroke="#fbbf24" stroke-width="2" stroke-linecap="square"/>
    <path d="M20 22 L22 30 M20 22 L18 30" stroke="#fbbf24" stroke-width="2" stroke-linecap="square"/>
  </g>
  <!-- Compact Custom RIFT Typography -->
  <g transform="translate(50, 8)">
    <!-- R -->
    <path d="M0 0 L0 35 L11 35 L16 30 L16 19 L11 14 L0 14 Z" fill="#ffffff"/>
    <path d="M0 20 L11 20 L13 22 L11 35" fill="#ffffff"/>
    <path d="M0 0 L0 35 L11 35 L16 30 L16 19 L11 14 L0 14 M0 20 L11 20 L13 22 L11 35" stroke="#fbbf24" stroke-width="0.8" stroke-linejoin="miter"/>
    <path d="M2 16 L16 11" stroke="#10b981" stroke-width="0.6" opacity="0.5" stroke-linecap="square"/>
    
    <!-- I -->
    <g transform="translate(23, 0)">
      <path d="M0 0 L12 0 L12 8 L7 8 L7 27 L12 27 L12 35 L0 35 L0 27 L5 27 L5 8 L0 8 Z" fill="#ffffff"/>
      <path d="M0 0 L12 0 L12 8 L7 8 L7 27 L12 27 L12 35 L0 35 L0 27 L5 27 L5 8 L0 8" stroke="#fbbf24" stroke-width="0.8" stroke-linejoin="miter"/>
    </g>
    
    <!-- F -->
    <g transform="translate(39, 0)">
      <path d="M0 0 L0 35 L12 35 L12 27 L7 27 L7 20 L12 20 L12 12 L7 12 L7 0 Z" fill="#ffffff"/>
      <path d="M0 0 L0 35 L12 35 L12 27 L7 27 L7 20 L12 20 L12 12 L7 12 L7 0" stroke="#fbbf24" stroke-width="0.8" stroke-linejoin="miter"/>
      <path d="M2 12 L16 9" stroke="#10b981" stroke-width="0.6" opacity="0.5" stroke-linecap="square"/>
    </g>
    
    <!-- T -->
    <g transform="translate(55, 0)">
      <path d="M0 0 L18 0 L18 8 L11 8 L11 35 L7 35 L7 8 L0 8 Z" fill="#ffffff"/>
      <path d="M0 0 L18 0 L18 8 L11 8 L11 35 L7 35 L7 8 L0 8" stroke="#fbbf24" stroke-width="0.8" stroke-linejoin="miter"/>
      <path d="M3 4 L15 4" stroke="#10b981" stroke-width="0.6" opacity="0.5" stroke-linecap="square"/>
    </g>
  </g>
</svg>
