<svg width="250" height="250" viewBox="0 0 250 250" fill="none" xmlns="http://www.w3.org/2000/svg">
  <!-- Icon on top -->
  <g transform="translate(50, 30)">
    <path d="M15 25 L85 25" stroke="#fbbf24" stroke-width="3.5" stroke-linecap="square"/>
    <path d="M20 50 L80 50" stroke="#fbbf24" stroke-width="3.5" stroke-linecap="square"/>
    <path d="M25 75 L75 75" stroke="#fbbf24" stroke-width="3.5" stroke-linecap="square"/>
    <path d="M25 5 L28 25 M75 5 L72 25" stroke="#fbbf24" stroke-width="2.5" stroke-linecap="square"/>
    <path d="M30 30 L33 50 M70 30 L67 50" stroke="#fbbf24" stroke-width="2.5" stroke-linecap="square"/>
    <path d="M50 55 L53 75 M50 55 L47 75" stroke="#fbbf24" stroke-width="2.5" stroke-linecap="square"/>
  </g>
  <!-- Custom RIFT Typography -->
  <g transform="translate(30, 140)">
    <!-- R -->
    <path d="M0 0 L0 42 L14 42 L21 35 L21 23 L14 16 L0 16 Z" fill="#ffffff"/>
    <path d="M0 25 L14 25 L17 28 L14 42" fill="#ffffff"/>
    <path d="M0 0 L0 42 L14 42 L21 35 L21 23 L14 16 L0 16 M0 25 L14 25 L17 28 L14 42" stroke="#fbbf24" stroke-width="1.2" stroke-linejoin="miter"/>
    <path d="M3 20 L20 13" stroke="#10b981" stroke-width="0.8" opacity="0.5" stroke-linecap="square"/>
    
    <!-- I -->
    <g transform="translate(27, 0)">
      <path d="M0 0 L15 0 L15 9 L8 9 L8 33 L15 33 L15 42 L0 42 L0 33 L7 33 L7 9 L0 9 Z" fill="#ffffff"/>
      <path d="M0 0 L15 0 L15 9 L8 9 L8 33 L15 33 L15 42 L0 42 L0 33 L7 33 L7 9 L0 9" stroke="#fbbf24" stroke-width="1.2" stroke-linejoin="miter"/>
    </g>
    
    <!-- F -->
    <g transform="translate(46, 0)">
      <path d="M0 0 L0 42 L15 42 L15 32 L8 32 L8 22 L15 22 L15 12 L8 12 L8 0 Z" fill="#ffffff"/>
      <path d="M0 0 L0 42 L15 42 L15 32 L8 32 L8 22 L15 22 L15 12 L8 12 L8 0" stroke="#fbbf24" stroke-width="1.2" stroke-linejoin="miter"/>
      <path d="M3 12 L18 9" stroke="#10b981" stroke-width="0.8" opacity="0.5" stroke-linecap="square"/>
    </g>
    
    <!-- T -->
    <g transform="translate(65, 0)">
      <path d="M0 0 L22 0 L22 9 L14 9 L14 42 L10 42 L10 9 L0 9 Z" fill="#ffffff"/>
      <path d="M0 0 L22 0 L22 9 L14 9 L14 42 L10 42 L10 9 L0 9" stroke="#fbbf24" stroke-width="1.2" stroke-linejoin="miter"/>
      <path d="M5 4 L17 4" stroke="#10b981" stroke-width="0.8" opacity="0.5" stroke-linecap="square"/>
    </g>
  </g>
  <!-- Tagline -->
  <text x="125" y="210" font-family="system-ui, -apple-system, sans-serif" font-size="12" font-weight="600" fill="#10b981" letter-spacing="0.1em" text-anchor="middle" opacity="0.9">
    CUSTOM BUILT
  </text>
</svg>
