<?xml version="1.0" encoding="UTF-8"?>
<svg xmlns="http://www.w3.org/2000/svg" viewBox="0 0 400 400" width="400" height="400">
    <defs>
        <style>
            @import url('https://fonts.googleapis.com/css2?family=Inter:wght@300;400;700&amp;display=swap');
        </style>
    </defs>
    
        <circle cx="200" cy="200" r="195" fill="#0d4d3f" 
                stroke="#fbbf24" stroke-width="5"/>
        
        <!-- Volcanic Rift Icon -->
        <g transform="translate(150, 80) scale(0.5)">
            <!-- Horizontal lines -->
            <path d="M10 30 L90 30" stroke="#fbbf24" stroke-width="3" stroke-linecap="square"/>
            <path d="M15 60 L85 60" stroke="#fbbf24" stroke-width="3" stroke-linecap="square"/>
            <path d="M20 90 L80 90" stroke="#fbbf24" stroke-width="3" stroke-linecap="square"/>
            <!-- Angular cracks -->
            <path d="M25 15 L28 30 M75 15 L72 30" stroke="#fbbf24" stroke-width="2.5" stroke-linecap="square"/>
            <path d="M30 45 L33 60 M70 45 L67 60" stroke="#fbbf24" stroke-width="2.5" stroke-linecap="square"/>
            <path d="M50 75 L53 90 M50 75 L47 90" stroke="#fbbf24" stroke-width="2.5" stroke-linecap="square"/>
        </g>
        
        
        <g>
            <path d="
            M 140 235.0 L 140 200
            L 148.75 200
            Q 152.83333333333334 204.66666666666666 148.75 212.83333333333334
            L 140 212.83333333333334
            M 144.08333333333334 212.83333333333334 L 152.83333333333334 235.0
        " stroke="#ffffff" stroke-width="1.75" 
                  fill="none" stroke-linecap="round" stroke-linejoin="round"/>
            <path d="
            M 163.33333333333334 200 L 163.33333333333334 235.0
        " stroke="#ffffff" stroke-width="1.75" 
                  fill="none" stroke-linecap="round"/>
            <path d="
            M 173.83333333333334 235.0 L 173.83333333333334 200
            L 185.5 200
            M 173.83333333333334 216.33333333333334 L 182.58333333333334 216.33333333333334
        " stroke="#ffffff" stroke-width="1.75" 
                  fill="none" stroke-linecap="round"/>
            <path d="
            M 191.33333333333334 200 L 208.83333333333334 200
            M 200.08333333333334 200 L 200.08333333333334 235.0
        " stroke="#ffffff" stroke-width="1.75" 
                  fill="none" stroke-linecap="round"/>
        </g>
        
        <text x="200" y="290" font-family="'Inter', sans-serif" font-size="12" 
              fill="#fbbf24" text-anchor="middle" letter-spacing="3">
            CUSTOM BIKES
        </text>
        
</svg>