<svg width="400" height="150" viewBox="0 0 400 150" fill="none" xmlns="http://www.w3.org/2000/svg">
  <!-- Custom RIFT Typography - Large -->
  <g transform="translate(30, 15)">
    <!-- R -->
    <path d="M0 0 L0 90 L28 90 L42 76 L42 48 L28 34 L0 34 Z" fill="#ffffff"/>
    <path d="M0 50 L28 50 L35 57 L28 90" fill="#ffffff"/>
    <path d="M0 0 L0 90 L28 90 L42 76 L42 48 L28 34 L0 34 M0 50 L28 50 L35 57 L28 90" stroke="#fbbf24" stroke-width="2" stroke-linejoin="miter"/>
    <path d="M6 42 L40 28" stroke="#10b981" stroke-width="1.5" opacity="0.5" stroke-linecap="square"/>
    
    <!-- I -->
    <g transform="translate(50, 0)">
      <path d="M0 0 L36 0 L36 18 L22 18 L22 72 L36 72 L36 90 L0 90 L0 72 L14 72 L14 18 L0 18 Z" fill="#ffffff"/>
      <path d="M0 0 L36 0 L36 18 L22 18 L22 72 L36 72 L36 90 L0 90 L0 72 L14 72 L14 18 L0 18" stroke="#fbbf24" stroke-width="2" stroke-linejoin="miter"/>
    </g>
    
    <!-- F -->
    <g transform="translate(94, 0)">
      <path d="M0 0 L0 90 L36 90 L36 68 L22 68 L22 50 L36 50 L36 28 L22 28 L22 0 Z" fill="#ffffff"/>
      <path d="M0 0 L0 90 L36 90 L36 68 L22 68 L22 50 L36 50 L36 28 L22 28 L22 0" stroke="#fbbf24" stroke-width="2" stroke-linejoin="miter"/>
      <path d="M6 28 L44 20" stroke="#10b981" stroke-width="1.5" opacity="0.5" stroke-linecap="square"/>
    </g>
    
    <!-- T -->
    <g transform="translate(138, 0)">
      <path d="M0 0 L54 0 L54 18 L33 18 L33 90 L22 90 L22 18 L0 18 Z" fill="#ffffff"/>
      <path d="M0 0 L54 0 L54 18 L33 18 L33 90 L22 90 L22 18 L0 18" stroke="#fbbf24" stroke-width="2" stroke-linejoin="miter"/>
      <path d="M10 9 L44 9" stroke="#10b981" stroke-width="1.5" opacity="0.5" stroke-linecap="square"/>
    </g>
  </g>
  <!-- Tagline -->
  <text x="200" y="125" font-family="system-ui, -apple-system, sans-serif" font-size="14" font-weight="600" fill="#10b981" letter-spacing="0.2em" text-anchor="middle" opacity="0.9">
    CUSTOM BUILT
  </text>
</svg>
