<svg width="300" height="100" viewBox="0 0 300 100" fill="none" xmlns="http://www.w3.org/2000/svg">
  <!-- Minimalist rift lines -->
  <g>
    <path d="M10 25 L70 25" stroke="#fbbf24" stroke-width="2.5" stroke-linecap="square"/>
    <path d="M15 50 L65 50" stroke="#fbbf24" stroke-width="2.5" stroke-linecap="square"/>
    <path d="M20 75 L60 75" stroke="#fbbf24" stroke-width="2.5" stroke-linecap="square"/>
  </g>
  <!-- Minimal Custom RIFT Typography -->
  <g transform="translate(85, 10)">
    <!-- R -->
    <path d="M0 0 L0 50 L13 50 L20 43 L20 26 L13 19 L0 19 Z" fill="#ffffff"/>
    <path d="M0 28 L13 28 L15 30 L13 50" fill="#ffffff"/>
    <path d="M0 0 L0 50 L13 50 L20 43 L20 26 L13 19 L0 19 M0 28 L13 28 L15 30 L13 50" stroke="#fbbf24" stroke-width="1" stroke-linejoin="miter"/>
    <path d="M2 23 L18 16" stroke="#10b981" stroke-width="0.7" opacity="0.5" stroke-linecap="square"/>
    
    <!-- I -->
    <g transform="translate(26, 0)">
      <path d="M0 0 L14 0 L14 10 L8 10 L8 40 L14 40 L14 50 L0 50 L0 40 L6 40 L6 10 L0 10 Z" fill="#ffffff"/>
      <path d="M0 0 L14 0 L14 10 L8 10 L8 40 L14 40 L14 50 L0 50 L0 40 L6 40 L6 10 L0 10" stroke="#fbbf24" stroke-width="1" stroke-linejoin="miter"/>
    </g>
    
    <!-- F -->
    <g transform="translate(44, 0)">
      <path d="M0 0 L0 50 L14 50 L14 40 L8 40 L8 30 L14 30 L14 19 L8 19 L8 0 Z" fill="#ffffff"/>
      <path d="M0 0 L0 50 L14 50 L14 40 L8 40 L8 30 L14 30 L14 19 L8 19 L8 0" stroke="#fbbf24" stroke-width="1" stroke-linejoin="miter"/>
      <path d="M2 19 L18 15" stroke="#10b981" stroke-width="0.7" opacity="0.5" stroke-linecap="square"/>
    </g>
    
    <!-- T -->
    <g transform="translate(62, 0)">
      <path d="M0 0 L20 0 L20 10 L12 10 L12 50 L8 10 L8 10 L0 10 Z" fill="#ffffff"/>
      <path d="M0 0 L20 0 L20 10 L12 10 L12 50 L8 50 L8 10 L0 10" stroke="#fbbf24" stroke-width="1" stroke-linejoin="miter"/>
      <path d="M4 5 L16 5" stroke="#10b981" stroke-width="0.7" opacity="0.5" stroke-linecap="square"/>
    </g>
  </g>
</svg>
