<?xml version="1.0" encoding="UTF-8"?>
<svg xmlns="http://www.w3.org/2000/svg" viewBox="0 0 450 180" width="450" height="180">
    <defs>
        <style>
            @import url('https://fonts.googleapis.com/css2?family=Inter:wght@300;400;700&amp;display=swap');
        </style>
    </defs>
    
        <rect width="450" height="180" fill="#0d4d3f"/>
        <!-- Background text (outline) -->
        
        <g>
            <path d="
            M 60.0 135.0 L 60.0 70.0
            L 87.08333333333333 70.0 L 92.5 86.25
            L 87.08333333333333 102.5 L 60.0 102.5
            M 73.0 102.5 L 92.5 135.0
        " stroke="none" stroke-width="8.666666666666666" 
                  fill="none" stroke="#fbbf24" stroke-width="2" stroke-linecap="square" stroke-linejoin="miter"/>
            <path d="
            M 114.16666666666666 70.0 L 114.16666666666666 135.0
            M 103.33333333333333 70.0 L 125.0 70.0
            M 103.33333333333333 135.0 L 125.0 135.0
        " stroke="none" stroke-width="8.666666666666666" 
                  fill="none" stroke="#fbbf24" stroke-width="2" stroke-linecap="square"/>
            <path d="
            M 146.66666666666666 135.0 L 146.66666666666666 70.0
            L 179.16666666666666 70.0
            M 146.66666666666666 100.33333333333333 L 173.75 100.33333333333333
        " stroke="none" stroke-width="8.666666666666666" 
                  fill="none" stroke="#fbbf24" stroke-width="2" stroke-linecap="square"/>
            <path d="
            M 195.41666666666666 70.0 L 238.75 70.0
            M 217.08333333333331 70.0 L 217.08333333333331 135.0
        " stroke="none" stroke-width="8.666666666666666" 
                  fill="none" stroke="#fbbf24" stroke-width="2" stroke-linecap="square"/>
        </g>
        
        <!-- Foreground text -->
        
        <g>
            <path d="
            M 60.0 135.0 L 60.0 70.0
            L 87.08333333333333 70.0 L 92.5 86.25
            L 87.08333333333333 102.5 L 60.0 102.5
            M 73.0 102.5 L 92.5 135.0
        " fill="#ffffff" stroke-width="8.666666666666666" 
                  fill="none" stroke-linecap="square" stroke-linejoin="miter"/>
            <path d="
            M 114.16666666666666 70.0 L 114.16666666666666 135.0
            M 103.33333333333333 70.0 L 125.0 70.0
            M 103.33333333333333 135.0 L 125.0 135.0
        " fill="#ffffff" stroke-width="8.666666666666666" 
                  fill="none" stroke-linecap="square"/>
            <path d="
            M 146.66666666666666 135.0 L 146.66666666666666 70.0
            L 179.16666666666666 70.0
            M 146.66666666666666 100.33333333333333 L 173.75 100.33333333333333
        " fill="#ffffff" stroke-width="8.666666666666666" 
                  fill="none" stroke-linecap="square"/>
            <path d="
            M 195.41666666666666 70.0 L 238.75 70.0
            M 217.08333333333331 70.0 L 217.08333333333331 135.0
        " fill="#ffffff" stroke-width="8.666666666666666" 
                  fill="none" stroke-linecap="square"/>
        </g>
        
        
</svg>