<?xml version="1.0" encoding="UTF-8"?>
<svg xmlns="http://www.w3.org/2000/svg" viewBox="0 0 600 300" width="600" height="300">
    <defs>
        <style>
            @import url('https://fonts.googleapis.com/css2?family=Inter:wght@300;400;700&amp;display=swap');
        </style>
    </defs>
    
        <g opacity="0.2">
            
        <!-- Volcanic Rift Icon -->
        <g transform="translate(50, 50) scale(1.5)">
            <!-- Horizontal lines -->
            <path d="M10 30 L90 30" stroke="#000000" stroke-width="3" stroke-linecap="square"/>
            <path d="M15 60 L85 60" stroke="#000000" stroke-width="3" stroke-linecap="square"/>
            <path d="M20 90 L80 90" stroke="#000000" stroke-width="3" stroke-linecap="square"/>
            <!-- Angular cracks -->
            <path d="M25 15 L28 30 M75 15 L72 30" stroke="#000000" stroke-width="2.5" stroke-linecap="square"/>
            <path d="M30 45 L33 60 M70 45 L67 60" stroke="#000000" stroke-width="2.5" stroke-linecap="square"/>
            <path d="M50 75 L53 90 M50 75 L47 90" stroke="#000000" stroke-width="2.5" stroke-linecap="square"/>
        </g>
        
            
        <g>
            <path d="
            M 220 180.0 L 220 106.66666666666667
            Q 220 100 226.66666666666666 100
            L 246.66666666666666 100
            Q 260.0 100 260.0 118.66666666666666
            Q 260.0 134.66666666666666 244.0 134.66666666666666
            L 220 134.66666666666666
            M 230.66666666666666 134.66666666666666 L 260.0 180.0
        " stroke="#000000" stroke-width="5.333333333333333" 
                  fill="none" stroke-linecap="round" stroke-linejoin="round"/>
            <path d="
            M 289.3333333333333 100 L 289.3333333333333 180.0
        " stroke="#000000" stroke-width="5.333333333333333" 
                  fill="none" stroke-linecap="round"/>
            <path d="
            M 318.66666666666663 180.0 L 318.66666666666663 100
            L 360.0 100
            M 318.66666666666663 137.33333333333331 L 350.66666666666663 137.33333333333331
        " stroke="#000000" stroke-width="5.333333333333333" 
                  fill="none" stroke-linecap="round"/>
            <path d="
            M 376.0 100 L 426.66666666666663 100
            M 401.3333333333333 100 L 401.3333333333333 180.0
        " stroke="#000000" stroke-width="5.333333333333333" 
                  fill="none" stroke-linecap="round"/>
        </g>
        
        </g>
        
</svg>