<?xml version="1.0" encoding="UTF-8"?>
<svg xmlns="http://www.w3.org/2000/svg" viewBox="0 0 1200 630" width="1200" height="630">
    
    
        
        <defs>
            <linearGradient id="fb-bg" x1="0%" y1="0%" x2="100%" y2="100%">
                <stop offset="0%" style="stop-color:#0a1f1a;stop-opacity:1" />
                <stop offset="100%" style="stop-color:#0d4d3f;stop-opacity:1" />
            </linearGradient>
        </defs>
        <rect width="1200" height="630" fill="url(#fb-bg)"/>
        
        
        <g>
            
        <path d="M75.0 330.0 L275.0 330.0" stroke="#fbbf24" stroke-width="7.5" stroke-linecap="square"/>
        <path d="M87.5 405.0 L262.5 405.0" stroke="#fbbf24" stroke-width="7.5" stroke-linecap="square"/>
        <path d="M100.0 480.0 L250.0 480.0" stroke="#fbbf24" stroke-width="7.5" stroke-linecap="square"/>
        
            
        <!-- Top crack with chain elements -->
        <path d="M112.5 292.5 L120.0 330.0" stroke="#fbbf24" stroke-width="6.25" stroke-linecap="square"/>
        <path d="M237.5 292.5 L230.0 330.0" stroke="#fbbf24" stroke-width="6.25" stroke-linecap="square"/>
        <!-- Chain link in top crack -->
        <circle cx="116.25" cy="311.25" r="7.5" fill="none" stroke="#fbbf24" stroke-width="3.75"/>
        <circle cx="233.75" cy="311.25" r="7.5" fill="none" stroke="#fbbf24" stroke-width="3.75"/>
        
            
        <!-- Middle crack with cog elements -->
        <path d="M125.0 367.5 L132.5 405.0" stroke="#fbbf24" stroke-width="6.25" stroke-linecap="square"/>
        <path d="M225.0 367.5 L217.5 405.0" stroke="#fbbf24" stroke-width="6.25" stroke-linecap="square"/>
        <!-- Cog/gear in middle crack -->
        <g transform="translate(128.75, 386.25)">
            <circle r="10.0" fill="none" stroke="#fbbf24" stroke-width="3.75"/>
            <circle r="5.0" fill="#fbbf24"/>
            <!-- Gear teeth -->
            <path d="M-10.0 0 L-13.75 -3.75 M10.0 0 L13.75 -3.75" stroke="#fbbf24" stroke-width="3.0" stroke-linecap="round"/>
            <path d="M0 -10.0 L-3.75 -13.75 M0 10.0 L3.75 13.75" stroke="#fbbf24" stroke-width="3.0" stroke-linecap="round"/>
        </g>
        <g transform="translate(221.25, 386.25)">
            <circle r="10.0" fill="none" stroke="#fbbf24" stroke-width="3.75"/>
            <circle r="5.0" fill="#fbbf24"/>
            <path d="M-10.0 0 L-13.75 -3.75 M10.0 0 L13.75 -3.75" stroke="#fbbf24" stroke-width="3.0" stroke-linecap="round"/>
            <path d="M0 -10.0 L-3.75 -13.75 M0 10.0 L3.75 13.75" stroke="#fbbf24" stroke-width="3.0" stroke-linecap="round"/>
        </g>
        
            
        <!-- Bottom crack with bike chain -->
        <path d="M175.0 442.5 L182.5 480.0" stroke="#fbbf24" stroke-width="6.25" stroke-linecap="square"/>
        <path d="M175.0 442.5 L167.5 480.0" stroke="#fbbf24" stroke-width="6.25" stroke-linecap="square"/>
        <!-- Chain links in bottom crack -->
        <g transform="translate(178.75, 461.25)">
            <rect x="-7.5" y="-5.0" width="15.0" height="10.0" rx="2.5" fill="none" stroke="#fbbf24" stroke-width="3.75"/>
            <circle cx="-8.75" cy="0" r="3.75" fill="none" stroke="#fbbf24" stroke-width="3.0"/>
            <circle cx="8.75" cy="0" r="3.75" fill="none" stroke="#fbbf24" stroke-width="3.0"/>
        </g>
        
            
        <path d="M90.0 280.0 L95.0 290.0" stroke="#fbbf24" stroke-width="3.75" stroke-linecap="square" opacity="0.7"/>
        <path d="M130.0 280.0 L125.0 290.0" stroke="#fbbf24" stroke-width="3.75" stroke-linecap="square" opacity="0.7"/>
        
        </g>
        
        
        <g>
            <path d="
            M 200.0 355.0 L 200.0 285.0
            L 229.16666666666666 285.0 L 235.0 302.5
            L 229.16666666666666 320.0 L 200.0 320.0
            M 214.0 320.0 L 235.0 355.0
        " stroke="#ffffff" stroke-width="9.333333333333334" 
                  fill="none" stroke-linecap="square" stroke-linejoin="miter"/>
            <path d="
            M 258.3333333333333 285.0 L 258.3333333333333 355.0
            M 246.66666666666669 285.0 L 270.0 285.0
            M 246.66666666666669 355.0 L 270.0 355.0
        " stroke="#ffffff" stroke-width="9.333333333333334" 
                  fill="none" stroke-linecap="square"/>
            <path d="
            M 293.33333333333337 355.0 L 293.33333333333337 285.0
            L 328.33333333333337 285.0
            M 293.33333333333337 317.6666666666667 L 322.5 317.6666666666667
        " stroke="#ffffff" stroke-width="9.333333333333334" 
                  fill="none" stroke-linecap="square"/>
            <path d="
            M 345.83333333333337 285.0 L 392.5 285.0
            M 369.1666666666667 285.0 L 369.1666666666667 355.0
        " stroke="#ffffff" stroke-width="9.333333333333334" 
                  fill="none" stroke-linecap="square"/>
        </g>
        
        
        <text x="200" y="395.0" font-family="system-ui, sans-serif" font-size="32" 
              font-weight="900" fill="#fbbf24" letter-spacing="0.1em">
            RIDE IT
        </text>
        <text x="200" y="430.0" font-family="system-ui, sans-serif" font-size="18" 
              fill="#ffffff" opacity="0.9">
            Premium Road Cycling. Custom Built.
        </text>
        
        
</svg>