<?xml version="1.0" encoding="utf-8"?>
<!-- Generator: Adobe Illustrator 19.2.1, SVG Export Plug-In . SVG Version: 6.00 Build 0)  -->
<svg version="1.1" id="layer" xmlns="http://www.w3.org/2000/svg" xmlns:xlink="http://www.w3.org/1999/xlink" x="0px" y="0px"
	 viewBox="0 0 652 652" style="enable-background:new 0 0 652 652;" xml:space="preserve">
<style type="text/css">
	.st0{fill:#FFBE00;}
	.st1{fill:#FFFFFF;}
</style>
<rect x="21.8" y="218.8" width="600" height="205.3"/>
<polygon class="st0" points="102.1,309.7 134.1,309.7 138.5,302.2 106.4,302.2 "/>
<path class="st1" d="M265.3,309.6c-3.8,0-6.2,0.6-7.3,2.5l-10.2,17.7c-0.8,1.3-1.4,3.3,2.3,3.3l28.4,0c2.2-0.2,4.1-1.1,5.1-2.6
	c1.9-3.2,2.4-4.1,3.1-5.4h-17.4l4.2-7.3l35.9,0l-8.9,15.2c-3.4,5.3-5.1,7.8-18.9,7.8h-40.2c-7.9,0-18.7,0.7-14.8-6.4l14.6-25.4
	c2.3-4.6,7.6-6.9,17.8-6.8h59.2l-4.3,7.4H265.3z M398.2,340.7l21.9-38.5h-17.6l-21.8,38.5H398.2z M142.5,302.2L127,329.1
	c-1.1,1.8-2.3,4-6.4,4h-28c-2.4,0-3.2-1.3-2.4-2.6c7-12.5,7.2-12.7,7.2-12.7H79.5l-9.2,15c-3.3,5.5-2,7.9,7.7,7.9h49.2
	c11.6,0,13.6-3.8,16.2-8.2l17.5-30.3H142.5z M351.3,302.2l-17.7,30.9H330c-3.2,0-5-0.3-3.4-3.4l15.7-27.5h-18.3l-18.2,31.3
	c-1.5,2.5-3.4,7.2,6.8,7.2h50c10.4,0,13.5-2.5,16.5-7.7l17.8-30.8h-18.4L363,329.4c-2.7,4-4.5,3.5-6.7,3.7l-4.2,0l17.8-30.9H351.3z
	 M227,302.2c10,0,10.9,2.3,8.6,6.5L222,332.5c-3.8,7-7.5,8-19.8,8.2h-43.8c-11.5,0-13.6-1.3-9.6-7.7l8.8-15.3H212l3-5
	c1.1-2.1,0.5-3-2.9-3h-49.8l4.3-7.4L227,302.2 M198.6,333.2c5.3,0,7.5-5,7.5-5l1.7-3h-35.9c-1.3,2.3-1.7,2.9-3.2,5.6
	c-0.7,1.3-0.1,2.4,1.7,2.4H198.6 M563.4,302.2c11.5,0,13.6,1.3,9.6,7.7l-8.8,15.3H510l-3,5c-1.1,2.1-0.7,3,2.7,3h49.6l-4.3,7.4
	l-60,0c-10,0-11.2-2.3-9-6.5l13.6-23.8c3.8-7,7.5-8,19.8-8.2H563.4 M553,312.2c0.7-1.3,0.1-2.4-1.7-2.4h-28c-5.2,0-7.5,5-7.5,5
	l-1.7,3h35.8C551.1,315.6,551.4,314.9,553,312.2 M488.9,302.2c10.4,0,7.5,4.1,4.4,9.6l-4.8,8.4c-2,3.5-7.9,5.1-13.4,5.1h-7.3
	l8.8,15.4h-17.6l-8.7-15.4h-1.5h-17.5l-8.7,15.4h-18.5l18.2-31.7c2.8-5.2,7.2-6.9,17.4-6.8H488.9 M472.7,315.1c0.9-2.1,4-5.4-1-5.4
	l-27,0c-3.8,0-5.9,2.1-7,3.9l-2.4,4.1h35.8L472.7,315.1 M559.4,337h1.3v3.5h0.7V337h1.3v-0.6h-3.4V337z M563.3,340.6h0.7v-3.2h0
	l1.2,3.2h0.6l1.2-3.2h0v3.2h0.7v-4.2h-1l-1.1,3.3h0l-1.1-3.3h-1V340.6z"/>
</svg>
