<?xml version="1.0" encoding="utf-8"?>
<!-- Generator: Adobe Illustrator 19.2.1, SVG Export Plug-In . SVG Version: 6.00 Build 0)  -->
<svg version="1.1" id="layer" xmlns="http://www.w3.org/2000/svg" xmlns:xlink="http://www.w3.org/1999/xlink" x="0px" y="0px"
	 viewBox="0 0 652 652" style="enable-background:new 0 0 652 652;" xml:space="preserve">
<style type="text/css">
	.st0{fill:#FFFFFF;}
	.st1{fill:#FFC60F;}
</style>
<path d="M499.1,317.1L499.1,317.1c0-4.1-8.3-4.8-11.8-4.8c-3.5,0-11.7,0.2-11.7,0.2l-4.2,10.9C490.2,323.4,499.1,321.1,499.1,317.1
	 M498,327.3c0.1,0.1,6.4,0.7,9.4,7.6c3,6.9,6.5,14.5,6.5,14.5h-23.7c0,0-1.9-4.6-3.3-7.9c-1.4-3.4-2.4-9.8-9.5-9.9
	c-6.8-0.2-9.1-0.2-9.1-0.2l-7.6,18.7h-23.7l18.9-45.7h34.8c6.4,0,32-0.7,32.1,9.9c0.1,7.2-9.4,10.4-17.3,12.3
	C505.6,326.6,501.2,327.4,498,327.3z M405.5,350.4h-24.2l14.8-37.1h-27.7l-30.6,13.4l37.5,23.6h-10.8l-35.8-22.8l-9.5,23.1h-8.9
	l18.9-45.9h8.8l-8.1,20.1l48.5-20.1H447l-3.9,8.6h-22.6L405.5,350.4z M319.8,305l-1.2,3.5h-35.2l-6.9,17h33.6l-1.2,3.7l-33.8,0
	l-7.5,18h35.8h1.3l-1.3,3.4H302h-44.9l18.4-45.6H319.8z M139.6,321.7c0,32.5-26.3,58.8-58.8,58.8c-32.5,0-58.8-26.3-58.8-58.8
	c0-32.5,26.3-58.8,58.8-58.8C113.3,262.8,139.6,289.2,139.6,321.7"/>
<path class="st0" d="M133.6,295.7H80.6H64.1h0l0,0l-41.7,19.2c-0.2,1.4-0.3,2.8-0.3,4.2c0,0.9-0.1,1.7-0.1,2.6v0.2l6.3-2.8L59.7,305
	l28.7,0l-5.7,14.1l-1.9,4.7l-9.4,23.3h28.1l9.4-23.3l1.9-4.7l5.7-14.1h20.6C136.3,301.8,135,298.6,133.6,295.7"/>
<path class="st1" d="M60.8,310.3h19.8l-14.8,36.8H55.5l-33.3-19.5L60.8,310.3z M539.2,327l0.3-1.5H230.8l-0.9,2.5h309.2L539.2,327z"
	/>
<path d="M528,327.5L528,327.5c1.5-6.3,7-22.8,49.2-24.5c45-1.8,44.7,16.6,44.7,20c0,3.4-3,25.2-48.2,27.4
	C528.9,352.4,527,334.8,528,327.5 M570,341.3c17.1,0.7,24.4-10.2,26.1-15.9c1.8-5.7-1.2-13.9-17.5-13.6
	c-16.2,0.4-23.8,9.8-25.1,14.1C551.5,333.3,552.9,340.6,570,341.3z M238.2,308.5h27.1l1.4-3.5h-63.4l-1.6,3.5h27.2l-16.9,42h8.9
	L238.2,308.5z"/>
</svg>
