<?xml version="1.0" encoding="UTF-8"?>
<svg xmlns="http://www.w3.org/2000/svg" viewBox="0 0 200 300" width="200" height="300">
    <rect width="200" height="300" fill="#0d4d3f"/>
    
        
        <!-- Volcanic Rift Icon -->
        <g transform="translate(50, 30) scale(1.0)">
            <!-- Horizontal lines -->
            <path d="M10 30 L90 30" stroke="#fbbf24" stroke-width="3.0" stroke-linecap="square"/>
            <path d="M15 60 L85 60" stroke="#fbbf24" stroke-width="3.0" stroke-linecap="square"/>
            <path d="M20 90 L80 90" stroke="#fbbf24" stroke-width="3.0" stroke-linecap="square"/>
            <!-- Angular cracks -->
            <path d="M25 15 L28 30 M75 15 L72 30" stroke="#fbbf24" stroke-width="2.5" stroke-linecap="square"/>
            <path d="M30 45 L33 60 M70 45 L67 60" stroke="#fbbf24" stroke-width="2.5" stroke-linecap="square"/>
            <path d="M50 75 L53 90 M50 75 L47 90" stroke="#fbbf24" stroke-width="2.5" stroke-linecap="square"/>
        </g>
        
        <g>
            <path d="M 20.0 225.0 L 20.0 180.0 L 38.75 180.0 L 42.5 191.25 L 38.75 202.5 L 20.0 202.5 Z M 29.0 202.5 L 42.5 225.0" fill="none" stroke="#ffffff" stroke-width="6.0" stroke-linecap="square" stroke-linejoin="miter"/>
            <path d="M 57.5 180.0 L 57.5 225.0 M 50.0 180.0 L 65.0 180.0 M 50.0 225.0 L 65.0 225.0" fill="none" stroke="#ffffff" stroke-width="6.0" stroke-linecap="square"/>
            <path d="M 80.0 225.0 L 80.0 180.0 L 102.5 180.0 M 80.0 201.0 L 98.75 201.0" fill="none" stroke="#ffffff" stroke-width="6.0" stroke-linecap="square"/>
            <path d="M 113.75 180.0 L 143.75 180.0 M 128.75 180.0 L 128.75 225.0" fill="none" stroke="#ffffff" stroke-width="6.0" stroke-linecap="square"/>
        </g>
        
</svg>