<?xml version="1.0" encoding="UTF-8"?>
<svg xmlns="http://www.w3.org/2000/svg" viewBox="0 0 250 70" width="250" height="70">
    <defs>
        <style>
            @import url('https://fonts.googleapis.com/css2?family=Inter:wght@300;400;700&amp;display=swap');
        </style>
    </defs>
    
        
        <!-- Volcanic Rift Icon -->
        <g transform="translate(0, 0) scale(0.4)">
            <!-- Horizontal lines -->
            <path d="M10 30 L90 30" stroke="#0d4d3f" stroke-width="3" stroke-linecap="square"/>
            <path d="M15 60 L85 60" stroke="#0d4d3f" stroke-width="3" stroke-linecap="square"/>
            <path d="M20 90 L80 90" stroke="#0d4d3f" stroke-width="3" stroke-linecap="square"/>
            <!-- Angular cracks -->
            <path d="M25 15 L28 30 M75 15 L72 30" stroke="#0d4d3f" stroke-width="2.5" stroke-linecap="square"/>
            <path d="M30 45 L33 60 M70 45 L67 60" stroke="#0d4d3f" stroke-width="2.5" stroke-linecap="square"/>
            <path d="M50 75 L53 90 M50 75 L47 90" stroke="#0d4d3f" stroke-width="2.5" stroke-linecap="square"/>
        </g>
        
        
        <g>
            <path d="
            M 60.0 50.0 L 60.0 20.0
            L 72.5 20.0 L 75.0 27.5
            L 72.5 35.0 L 60.0 35.0
            M 66.0 35.0 L 75.0 50.0
        " stroke="#0d4d3f" stroke-width="4.0" 
                  fill="none" stroke-linecap="square" stroke-linejoin="miter"/>
            <path d="
            M 85.0 20.0 L 85.0 50.0
            M 80.0 20.0 L 90.0 20.0
            M 80.0 50.0 L 90.0 50.0
        " stroke="#0d4d3f" stroke-width="4.0" 
                  fill="none" stroke-linecap="square"/>
            <path d="
            M 100.0 50.0 L 100.0 20.0
            L 115.0 20.0
            M 100.0 34.0 L 112.5 34.0
        " stroke="#0d4d3f" stroke-width="4.0" 
                  fill="none" stroke-linecap="square"/>
            <path d="
            M 122.5 20.0 L 142.5 20.0
            M 132.5 20.0 L 132.5 50.0
        " stroke="#0d4d3f" stroke-width="4.0" 
                  fill="none" stroke-linecap="square"/>
        </g>
        
        
</svg>