<?xml version="1.0" encoding="UTF-8"?>
<svg xmlns="http://www.w3.org/2000/svg" viewBox="0 0 600 200" width="600" height="200">
    <defs>
        <style>
            @import url('https://fonts.googleapis.com/css2?family=Inter:wght@300;400;700&amp;display=swap');
        </style>
    </defs>
    
        <rect width="600" height="200" fill="#fbbf24"/>
        
        <!-- Volcanic Rift Icon -->
        <g transform="translate(20, 50) scale(1.0)">
            <!-- Horizontal lines -->
            <path d="M10 30 L90 30" stroke="#0d4d3f" stroke-width="3" stroke-linecap="square"/>
            <path d="M15 60 L85 60" stroke="#0d4d3f" stroke-width="3" stroke-linecap="square"/>
            <path d="M20 90 L80 90" stroke="#0d4d3f" stroke-width="3" stroke-linecap="square"/>
            <!-- Angular cracks -->
            <path d="M25 15 L28 30 M75 15 L72 30" stroke="#0d4d3f" stroke-width="2.5" stroke-linecap="square"/>
            <path d="M30 45 L33 60 M70 45 L67 60" stroke="#0d4d3f" stroke-width="2.5" stroke-linecap="square"/>
            <path d="M50 75 L53 90 M50 75 L47 90" stroke="#0d4d3f" stroke-width="2.5" stroke-linecap="square"/>
        </g>
        
        
        <g>
            <path d="
            M 180.0 130.0 L 180.0 70.0
            L 205.0 70.0 L 210.0 85.0
            L 205.0 100.0 L 180.0 100.0
            M 192.0 100.0 L 210.0 130.0
        " stroke="#0d4d3f" stroke-width="8.0" 
                  fill="none" stroke-linecap="square" stroke-linejoin="miter"/>
            <path d="
            M 230.0 70.0 L 230.0 130.0
            M 220.0 70.0 L 240.0 70.0
            M 220.0 130.0 L 240.0 130.0
        " stroke="#0d4d3f" stroke-width="8.0" 
                  fill="none" stroke-linecap="square"/>
            <path d="
            M 260.0 130.0 L 260.0 70.0
            L 290.0 70.0
            M 260.0 98.0 L 285.0 98.0
        " stroke="#0d4d3f" stroke-width="8.0" 
                  fill="none" stroke-linecap="square"/>
            <path d="
            M 305.0 70.0 L 345.0 70.0
            M 325.0 70.0 L 325.0 130.0
        " stroke="#0d4d3f" stroke-width="8.0" 
                  fill="none" stroke-linecap="square"/>
        </g>
        
        
</svg>