<?xml version="1.0" encoding="UTF-8"?>
<svg xmlns="http://www.w3.org/2000/svg" viewBox="0 0 150 150" width="150" height="150">
    <defs>
        <style>
            @import url('https://fonts.googleapis.com/css2?family=Inter:wght@300;400;700&amp;display=swap');
        </style>
    </defs>
    
        <rect width="150" height="150" fill="#0d4d3f"/>
        
        <!-- Volcanic Rift Icon -->
        <g transform="translate(37.5, 20) scale(0.5)">
            <!-- Horizontal lines -->
            <path d="M10 30 L90 30" stroke="#fbbf24" stroke-width="3" stroke-linecap="square"/>
            <path d="M15 60 L85 60" stroke="#fbbf24" stroke-width="3" stroke-linecap="square"/>
            <path d="M20 90 L80 90" stroke="#fbbf24" stroke-width="3" stroke-linecap="square"/>
            <!-- Angular cracks -->
            <path d="M25 15 L28 30 M75 15 L72 30" stroke="#fbbf24" stroke-width="2.5" stroke-linecap="square"/>
            <path d="M30 45 L33 60 M70 45 L67 60" stroke="#fbbf24" stroke-width="2.5" stroke-linecap="square"/>
            <path d="M50 75 L53 90 M50 75 L47 90" stroke="#fbbf24" stroke-width="2.5" stroke-linecap="square"/>
        </g>
        
        
        <g>
            <path d="
            M 25.0 120.0 L 25.0 90.0
            L 37.5 90.0 L 40.0 97.5
            L 37.5 105.0 L 25.0 105.0
            M 31.0 105.0 L 40.0 120.0
        " stroke="#ffffff" stroke-width="4.0" 
                  fill="none" stroke-linecap="square" stroke-linejoin="miter"/>
            <path d="
            M 50.0 90.0 L 50.0 120.0
            M 45.0 90.0 L 55.0 90.0
            M 45.0 120.0 L 55.0 120.0
        " stroke="#ffffff" stroke-width="4.0" 
                  fill="none" stroke-linecap="square"/>
            <path d="
            M 65.0 120.0 L 65.0 90.0
            L 80.0 90.0
            M 65.0 104.0 L 77.5 104.0
        " stroke="#ffffff" stroke-width="4.0" 
                  fill="none" stroke-linecap="square"/>
            <path d="
            M 87.5 90.0 L 107.5 90.0
            M 97.5 90.0 L 97.5 120.0
        " stroke="#ffffff" stroke-width="4.0" 
                  fill="none" stroke-linecap="square"/>
        </g>
        
        
</svg>