<?xml version="1.0" encoding="UTF-8"?>
<svg xmlns="http://www.w3.org/2000/svg" viewBox="0 0 300 100" width="300" height="100">
    
    
        <g opacity="0.6">
            
        <!-- Volcanic Rift Icon -->
        <g transform="translate(20, 20) scale(0.6)">
            <!-- Horizontal lines -->
            <path d="M10 30 L90 30" stroke="#ffffff" stroke-width="1.7999999999999998" stroke-linecap="square"/>
            <path d="M15 60 L85 60" stroke="#ffffff" stroke-width="1.7999999999999998" stroke-linecap="square"/>
            <path d="M20 90 L80 90" stroke="#ffffff" stroke-width="1.7999999999999998" stroke-linecap="square"/>
            <!-- Angular cracks -->
            <path d="M25 15 L28 30 M75 15 L72 30" stroke="#ffffff" stroke-width="1.5" stroke-linecap="square"/>
            <path d="M30 45 L33 60 M70 45 L67 60" stroke="#ffffff" stroke-width="1.5" stroke-linecap="square"/>
            <path d="M50 75 L53 90 M50 75 L47 90" stroke="#ffffff" stroke-width="1.5" stroke-linecap="square"/>
        </g>
        
            <g>
            <path d="M 80.0 90.0 L 80.0 50.0 L 96.66666666666666 50.0 L 100.0 60.0 L 96.66666666666666 70.0 L 80.0 70.0 Z M 88.0 70.0 L 100.0 90.0" fill="none" stroke="#ffffff" stroke-width="5.333333333333333" stroke-linecap="square" stroke-linejoin="miter"/>
            <path d="M 113.33333333333333 50.0 L 113.33333333333333 90.0 M 106.66666666666666 50.0 L 120.0 50.0 M 106.66666666666666 90.0 L 120.0 90.0" fill="none" stroke="#ffffff" stroke-width="5.333333333333333" stroke-linecap="square"/>
            <path d="M 133.33333333333331 90.0 L 133.33333333333331 50.0 L 153.33333333333331 50.0 M 133.33333333333331 68.66666666666666 L 150.0 68.66666666666666" fill="none" stroke="#ffffff" stroke-width="5.333333333333333" stroke-linecap="square"/>
            <path d="M 163.33333333333331 50.0 L 190.0 50.0 M 176.66666666666666 50.0 L 176.66666666666666 90.0" fill="none" stroke="#ffffff" stroke-width="5.333333333333333" stroke-linecap="square"/>
        </g>
        </g>
        
</svg>