<?xml version="1.0" encoding="UTF-8"?>
<svg xmlns="http://www.w3.org/2000/svg" viewBox="0 0 200 66" width="200" height="66">
    
    
        <g opacity="0.7">
            
        <!-- Volcanic Rift Icon -->
        <g transform="translate(10, 10) scale(0.4)">
            <!-- Horizontal lines -->
            <path d="M10 30 L90 30" stroke="#ffffff" stroke-width="1.2000000000000002" stroke-linecap="square"/>
            <path d="M15 60 L85 60" stroke="#ffffff" stroke-width="1.2000000000000002" stroke-linecap="square"/>
            <path d="M20 90 L80 90" stroke="#ffffff" stroke-width="1.2000000000000002" stroke-linecap="square"/>
            <!-- Angular cracks -->
            <path d="M25 15 L28 30 M75 15 L72 30" stroke="#ffffff" stroke-width="1.0" stroke-linecap="square"/>
            <path d="M30 45 L33 60 M70 45 L67 60" stroke="#ffffff" stroke-width="1.0" stroke-linecap="square"/>
            <path d="M50 75 L53 90 M50 75 L47 90" stroke="#ffffff" stroke-width="1.0" stroke-linecap="square"/>
        </g>
        
            <g>
            <path d="M 50.0 63.0 L 50.0 33.0 L 62.5 33.0 L 65.0 40.5 L 62.5 48.0 L 50.0 48.0 Z M 56.0 48.0 L 65.0 63.0" fill="none" stroke="#ffffff" stroke-width="4.0" stroke-linecap="square" stroke-linejoin="miter"/>
            <path d="M 75.0 33.0 L 75.0 63.0 M 70.0 33.0 L 80.0 33.0 M 70.0 63.0 L 80.0 63.0" fill="none" stroke="#ffffff" stroke-width="4.0" stroke-linecap="square"/>
            <path d="M 90.0 63.0 L 90.0 33.0 L 105.0 33.0 M 90.0 47.0 L 102.5 47.0" fill="none" stroke="#ffffff" stroke-width="4.0" stroke-linecap="square"/>
            <path d="M 112.5 33.0 L 132.5 33.0 M 122.5 33.0 L 122.5 63.0" fill="none" stroke="#ffffff" stroke-width="4.0" stroke-linecap="square"/>
        </g>
        </g>
        
</svg>