<?xml version="1.0" encoding="UTF-8"?>
<svg xmlns="http://www.w3.org/2000/svg" viewBox="0 0 1200 800" width="1200" height="800">
    
    
        
        <rect x="0" y="0" width="1200" height="800" fill="none" stroke="#fbbf24" stroke-width="8"/>
        <rect x="20" y="20" width="1160" height="760" fill="none" stroke="#10b981" stroke-width="4" opacity="0.5"/>
        
        
        <path d="M 0 0 L 60 0 M 0 0 L 0 60" stroke="#fbbf24" stroke-width="6" stroke-linecap="round"/>
        <path d="M 1200 0 L 1140 0 M 1200 0 L 1200 60" stroke="#fbbf24" stroke-width="6" stroke-linecap="round"/>
        <path d="M 0 800 L 60 800 M 0 800 L 0 740" stroke="#fbbf24" stroke-width="6" stroke-linecap="round"/>
        <path d="M 1200 800 L 1140 800 M 1200 800 L 1200 740" stroke="#fbbf24" stroke-width="6" stroke-linecap="round"/>
        
        
        <g>
            
        <path d="M50.0 70.0 L130.0 70.0" stroke="#fbbf24" stroke-width="3.0" stroke-linecap="square"/>
        <path d="M55.0 100.0 L125.0 100.0" stroke="#fbbf24" stroke-width="3.0" stroke-linecap="square"/>
        <path d="M60.0 130.0 L120.0 130.0" stroke="#fbbf24" stroke-width="3.0" stroke-linecap="square"/>
        
            
        <!-- Top crack with chain elements -->
        <path d="M65.0 55.0 L68.0 70.0" stroke="#fbbf24" stroke-width="2.5" stroke-linecap="square"/>
        <path d="M115.0 55.0 L112.0 70.0" stroke="#fbbf24" stroke-width="2.5" stroke-linecap="square"/>
        <!-- Chain link in top crack -->
        <circle cx="66.5" cy="62.5" r="3.0" fill="none" stroke="#fbbf24" stroke-width="1.5"/>
        <circle cx="113.5" cy="62.5" r="3.0" fill="none" stroke="#fbbf24" stroke-width="1.5"/>
        
            
        <!-- Middle crack with cog elements -->
        <path d="M70.0 85.0 L73.0 100.0" stroke="#fbbf24" stroke-width="2.5" stroke-linecap="square"/>
        <path d="M110.0 85.0 L107.0 100.0" stroke="#fbbf24" stroke-width="2.5" stroke-linecap="square"/>
        <!-- Cog/gear in middle crack -->
        <g transform="translate(71.5, 92.5)">
            <circle r="4.0" fill="none" stroke="#fbbf24" stroke-width="1.5"/>
            <circle r="2.0" fill="#fbbf24"/>
            <!-- Gear teeth -->
            <path d="M-4.0 0 L-5.5 -1.5 M4.0 0 L5.5 -1.5" stroke="#fbbf24" stroke-width="1.2" stroke-linecap="round"/>
            <path d="M0 -4.0 L-1.5 -5.5 M0 4.0 L1.5 5.5" stroke="#fbbf24" stroke-width="1.2" stroke-linecap="round"/>
        </g>
        <g transform="translate(108.5, 92.5)">
            <circle r="4.0" fill="none" stroke="#fbbf24" stroke-width="1.5"/>
            <circle r="2.0" fill="#fbbf24"/>
            <path d="M-4.0 0 L-5.5 -1.5 M4.0 0 L5.5 -1.5" stroke="#fbbf24" stroke-width="1.2" stroke-linecap="round"/>
            <path d="M0 -4.0 L-1.5 -5.5 M0 4.0 L1.5 5.5" stroke="#fbbf24" stroke-width="1.2" stroke-linecap="round"/>
        </g>
        
            
        <!-- Bottom crack with bike chain -->
        <path d="M90.0 115.0 L93.0 130.0" stroke="#fbbf24" stroke-width="2.5" stroke-linecap="square"/>
        <path d="M90.0 115.0 L87.0 130.0" stroke="#fbbf24" stroke-width="2.5" stroke-linecap="square"/>
        <!-- Chain links in bottom crack -->
        <g transform="translate(91.5, 122.5)">
            <rect x="-3.0" y="-2.0" width="6.0" height="4.0" rx="1.0" fill="none" stroke="#fbbf24" stroke-width="1.5"/>
            <circle cx="-3.5" cy="0" r="1.5" fill="none" stroke="#fbbf24" stroke-width="1.2"/>
            <circle cx="3.5" cy="0" r="1.5" fill="none" stroke="#fbbf24" stroke-width="1.2"/>
        </g>
        
            
        <path d="M56.0 50.0 L58.0 54.0" stroke="#fbbf24" stroke-width="1.5" stroke-linecap="square" opacity="0.7"/>
        <path d="M72.0 50.0 L70.0 54.0" stroke="#fbbf24" stroke-width="1.5" stroke-linecap="square" opacity="0.7"/>
        
        </g>
        
        
</svg>