<?xml version="1.0" encoding="UTF-8"?>
<svg xmlns="http://www.w3.org/2000/svg" viewBox="0 0 1080 1920" width="1080" height="1920">
    
        <defs>
            <linearGradient id="reel-bg" x1="0%" y1="0%" x2="0%" y2="100%">
                <stop offset="0%" style="stop-color:#0d4d3f;stop-opacity:1" />
                <stop offset="50%" style="stop-color:#0a1f1a;stop-opacity:1" />
                <stop offset="100%" style="stop-color:#0d4d3f;stop-opacity:1" />
            </linearGradient>
        </defs>
        <rect width="1080" height="1920" fill="url(#reel-bg)"/>
        
        <!-- Logo top center -->
        
        <g transform="translate(490.0, 100)">
            <!-- Main lines -->
            <path d="M20.0 60.0 L180.0 60.0" stroke="#fbbf24" stroke-width="6.0" stroke-linecap="square"/>
            <path d="M30.0 120.0 L170.0 120.0" stroke="#fbbf24" stroke-width="6.0" stroke-linecap="square"/>
            <path d="M40.0 180.0 L160.0 180.0" stroke="#fbbf24" stroke-width="6.0" stroke-linecap="square"/>
            <!-- Cracks with bike elements -->
            <path d="M50.0 30.0 L56.0 60.0" stroke="#fbbf24" stroke-width="5.0" stroke-linecap="square"/>
            <circle cx="53.0" cy="45.0" r="6.0" fill="none" stroke="#fbbf24" stroke-width="3.0"/>
            <path d="M60.0 90.0 L66.0 120.0" stroke="#fbbf24" stroke-width="5.0" stroke-linecap="square"/>
            <g transform="translate(63.0, 105.0)">
                <circle r="8.0" fill="none" stroke="#fbbf24" stroke-width="3.0"/>
                <circle r="4.0" fill="#fbbf24"/>
            </g>
            <path d="M100.0 150.0 L106.0 180.0 M100.0 150.0 L94.0 180.0" stroke="#fbbf24" stroke-width="5.0" stroke-linecap="square"/>
        </g>
        
        
        <g>
            <path d="M 500.0 230.0 L 500.0 180 L 520.8333333333334 180 L 525.0 192.5 L 520.8333333333334 205.0 L 500.0 205.0 M 510.0 205.0 L 525.0 230.0" stroke="#ffffff" stroke-width="6.666666666666667" fill="none" stroke-linecap="square"/>
            <path d="M 541.6666666666666 180 L 541.6666666666666 230.0 M 533.3333333333334 180 L 550.0 180 M 533.3333333333334 230.0 L 550.0 230.0" stroke="#ffffff" stroke-width="6.666666666666667" fill="none" stroke-linecap="square"/>
            <path d="M 566.6666666666666 230.0 L 566.6666666666666 180 L 591.6666666666666 180 M 566.6666666666666 203.33333333333334 L 587.5 203.33333333333334" stroke="#ffffff" stroke-width="6.666666666666667" fill="none" stroke-linecap="square"/>
            <path d="M 604.1666666666666 180 L 637.5 180 M 620.8333333333334 180 L 620.8333333333334 230.0" stroke="#ffffff" stroke-width="6.666666666666667" fill="none" stroke-linecap="square"/>
        </g>
        
        
        <!-- Slogan center -->
        <text x="540.0" y="960.0" font-family="system-ui, sans-serif" font-size="64" 
              font-weight="900" fill="#fbbf24" text-anchor="middle" letter-spacing="0.2em">
            RIDE IT
        </text>
        
        <!-- Full slogan bottom -->
        <text x="540.0" y="1620" font-family="system-ui, sans-serif" font-size="36" 
              font-weight="700" fill="#ffffff" text-anchor="middle" opacity="0.9">
            I can, you can, we can
        </text>
        <text x="540.0" y="1720" font-family="system-ui, sans-serif" font-size="24" 
              fill="#ffffff" text-anchor="middle" opacity="0.7">
            Premium Road Cycling. Custom Built.
        </text>
        
</svg>