<?xml version="1.0" encoding="UTF-8"?>
<svg xmlns="http://www.w3.org/2000/svg" viewBox="0 0 1920 400" width="1920" height="400">
    
        <defs>
            <linearGradient id="banner2" x1="0%" y1="0%" x2="100%" y2="0%">
                <stop offset="0%" style="stop-color:#0d4d3f;stop-opacity:1" />
                <stop offset="100%" style="stop-color:#0a1f1a;stop-opacity:1" />
            </linearGradient>
        </defs>
        <rect width="1920" height="400" fill="url(#banner2)"/>
        
        
        <g transform="translate(100, 150.0)">
            <path d="M25.0 75.0 L225.0 75.0" stroke="#fbbf24" stroke-width="7.5" stroke-linecap="square"/>
            <path d="M37.5 150.0 L212.5 150.0" stroke="#fbbf24" stroke-width="7.5" stroke-linecap="square"/>
            <path d="M50.0 225.0 L200.0 225.0" stroke="#fbbf24" stroke-width="7.5" stroke-linecap="square"/>
            <path d="M62.5 37.5 L70.0 75.0" stroke="#fbbf24" stroke-width="6.25" stroke-linecap="square"/>
            <circle cx="66.25" cy="56.25" r="7.5" fill="none" stroke="#fbbf24" stroke-width="3.75"/>
            <path d="M75.0 112.5 L82.5 150.0" stroke="#fbbf24" stroke-width="6.25" stroke-linecap="square"/>
            <g transform="translate(78.75, 131.25)">
                <circle r="10.0" fill="none" stroke="#fbbf24" stroke-width="3.75"/>
                <circle r="5.0" fill="#fbbf24"/>
            </g>
            <path d="M125.0 187.5 L132.5 225.0 M125.0 187.5 L117.5 225.0" stroke="#fbbf24" stroke-width="6.25" stroke-linecap="square"/>
        </g>
        
        
        <g>
            <path d="M 300 240.0 L 300 170.0 L 329.1666666666667 170.0 L 335.0 187.5 L 329.1666666666667 205.0 L 300 205.0 M 314.0 205.0 L 335.0 240.0" stroke="#ffffff" stroke-width="9.333333333333334" fill="none" stroke-linecap="square"/>
            <path d="M 358.3333333333333 170.0 L 358.3333333333333 240.0 M 346.6666666666667 170.0 L 370.0 170.0 M 346.6666666666667 240.0 L 370.0 240.0" stroke="#ffffff" stroke-width="9.333333333333334" fill="none" stroke-linecap="square"/>
            <path d="M 393.33333333333337 240.0 L 393.33333333333337 170.0 L 428.33333333333337 170.0 M 393.33333333333337 202.66666666666669 L 422.5 202.66666666666669" stroke="#ffffff" stroke-width="9.333333333333334" fill="none" stroke-linecap="square"/>
            <path d="M 445.83333333333337 170.0 L 492.5 170.0 M 469.1666666666667 170.0 L 469.1666666666667 240.0" stroke="#ffffff" stroke-width="9.333333333333334" fill="none" stroke-linecap="square"/>
        </g>
        
        
        <text x="1160.0" y="180.0" font-family="system-ui, sans-serif" font-size="36" 
              font-weight="700" fill="#ffffff" text-anchor="start">
            I can, you can, we can
        </text>
        <text x="1160.0" y="240.0" font-family="system-ui, sans-serif" font-size="56" 
              font-weight="900" fill="#fbbf24" text-anchor="start" letter-spacing="0.2em">
            RIDE IT
        </text>
        
</svg>